<svg width="97" height="96" viewBox="0 0 97 96" fill="none" xmlns="http://www.w3.org/2000/svg">
<g id="accountsb24Logo">
<g id="Clip path group">
<mask id="mask0_350_1571" style="mask-type:luminance" maskUnits="userSpaceOnUse" x="0" y="0" width="97" height="96">
<g id="clip-path">
<path id="&#208;&#154;&#208;&#190;&#208;&#189;&#209;&#130;&#209;&#131;&#209;&#128; 246" d="M0.5 48C0.5 83.1205 13.3814 96 48.5 96C83.6186 96 96.5 83.1191 96.5 48C96.5 12.8809 83.6186 -7.62939e-06 48.5 -7.62939e-06C13.3814 -7.62939e-06 0.5 12.8809 0.5 48Z" fill="white"/>
</g>
</mask>
<g mask="url(#mask0_350_1571)">
<g id="&#208;&#161;&#208;&#179;&#209;&#128;&#209;&#131;&#208;&#191;&#208;&#191;&#208;&#184;&#209;&#128;&#208;&#190;&#208;&#178;&#208;&#176;&#209;&#130;&#209;&#140; 112">
<path id="&#208;&#159;&#209;&#128;&#209;&#143;&#208;&#188;&#208;&#190;&#209;&#131;&#208;&#179;&#208;&#190;&#208;&#187;&#209;&#140;&#208;&#189;&#208;&#184;&#208;&#186; 108" d="M96.5116 -0.0129852H0.462891V95.987H96.5116V-0.0129852Z" fill="#2900E0"/>
<path id="&#208;&#154;&#208;&#190;&#208;&#189;&#209;&#130;&#209;&#131;&#209;&#128; 244" d="M78.9421 79.119C72.1551 73.9998 64.2862 71.2909 56.1528 69.2625C49.0913 67.5012 41.8787 66.4129 34.6119 66.0121C26.8706 65.3065 12.1594 66.0191 7.55292 66.7748C-1.75471 68.3022 -10.9751 69.9338 -19.6156 73.8384C-27.7852 77.5295 -35.0932 82.162 -37.528 91.657V99.4833C-36.9355 102.727 -36.4975 106.008 -35.7223 109.207C-33.0776 120.208 -27.4365 130.261 -19.4249 138.25C-17.017 140.689 -13.4679 140.796 -11.1533 138.567C-8.83076 136.33 -8.78066 132.774 -11.1955 130.305C-18.6056 122.726 -23.3847 113.779 -25.2604 103.341C-25.7197 100.785 -25.8384 98.1671 -26.1238 95.5797C-26.3785 93.2715 -25.4743 91.4274 -23.875 89.8467C-20.4201 86.4284 -16.1272 84.4186 -11.6511 82.8412C2.22082 77.9503 16.5808 76.6327 31.1885 77.2739C41.5808 77.7309 51.8228 79.1361 61.5907 82.8315C65.2033 84.2841 68.6774 86.0602 71.9705 88.138C75.4157 90.2183 76.5412 93.3718 76.1715 97.5431C75.0265 110.466 70.033 121.477 60.9286 130.689C60.3925 131.208 59.9661 131.829 59.6747 132.515C59.3834 133.202 59.2331 133.94 59.2328 134.686C59.2324 135.432 59.382 136.17 59.6727 136.857C59.9634 137.543 60.3893 138.165 60.9249 138.684C61.4498 139.232 62.08 139.669 62.7776 139.968C63.4753 140.267 64.2261 140.422 64.9851 140.424C65.7441 140.426 66.4958 140.275 67.195 139.979C67.8943 139.684 68.5267 139.251 69.0546 138.706C78.2281 129.62 84.1429 118.738 86.5104 106.038C87.1386 102.304 87.5045 98.531 87.6053 94.746C87.9078 87.8276 84.1188 83.0221 78.9435 79.119H78.9421Z" fill="#F20089"/>
<path id="&#208;&#154;&#208;&#190;&#208;&#189;&#209;&#130;&#209;&#131;&#209;&#128; 245" d="M24.9429 52.2725C46.7482 52.2984 64.6564 34.6352 64.9264 13.2549C65.2108 -9.02786 47.5146 -27.1588 25.5242 -27.4339C3.15701 -27.7122 -14.7215 -9.45237 -14.7637 11.9549C-14.8101 34.3898 2.79421 52.2483 24.9429 52.2743M24.8816 -16.026C40.549 -16.0673 53.4879 -3.236 53.4907 12.3441C53.4815 19.8926 50.4852 27.1306 45.1564 32.4768C39.8275 37.8231 32.5993 40.8429 25.0509 40.8766C9.48056 40.923 -3.3623 28.0379 -3.38875 12.3441C-3.4138 -3.04857 9.47685 -15.9838 24.8793 -16.0241L24.8816 -16.026Z" fill="#F20089"/>
</g>
</g>
</g>
</g>
</svg>
