<svg width="32" height="32" viewBox="0 0 32 32" fill="none" xmlns="http://www.w3.org/2000/svg">
<g id="&#208;&#161;&#208;&#179;&#209;&#128;&#209;&#131;&#208;&#191;&#208;&#191;&#208;&#184;&#209;&#128;&#208;&#190;&#208;&#178;&#208;&#176;&#209;&#130;&#209;&#140; 113">
<g id="Clip path group">
<mask id="mask0_145_193" style="mask-type:luminance" maskUnits="userSpaceOnUse" x="0" y="0" width="32" height="32">
<g id="clip-path">
<path id="&#208;&#154;&#208;&#190;&#208;&#189;&#209;&#130;&#209;&#131;&#209;&#128; 246" d="M0 16C0 27.7068 4.29379 32 16 32C27.7062 32 32 27.7064 32 16C32 4.29364 27.7062 0 16 0C4.29379 0 0 4.29364 0 16Z" fill="white"/>
</g>
</mask>
<g mask="url(#mask0_145_193)">
<g id="&#208;&#161;&#208;&#179;&#209;&#128;&#209;&#131;&#208;&#191;&#208;&#191;&#208;&#184;&#209;&#128;&#208;&#190;&#208;&#178;&#208;&#176;&#209;&#130;&#209;&#140; 112">
<path id="&#208;&#159;&#209;&#128;&#209;&#143;&#208;&#188;&#208;&#190;&#209;&#131;&#208;&#179;&#208;&#190;&#208;&#187;&#209;&#140;&#208;&#189;&#208;&#184;&#208;&#186; 108" d="M32.0039 -0.0043335H-0.0123596V31.9957H32.0039V-0.0043335Z" fill="#2900E0"/>
<path id="&#208;&#154;&#208;&#190;&#208;&#189;&#209;&#130;&#209;&#131;&#209;&#128; 244" d="M26.1474 26.373C23.885 24.6666 21.2621 23.7636 18.5509 23.0875C16.1971 22.5004 13.7929 22.1376 11.3706 22.004C8.79018 21.7688 3.88646 22.0064 2.35096 22.2583C-0.751579 22.7674 -3.82505 23.3113 -6.7052 24.6128C-9.42839 25.8432 -11.8644 27.3873 -12.676 30.5523V33.1611C-12.4785 34.2422 -12.3325 35.3359 -12.0741 36.4024C-11.1925 40.0693 -9.31216 43.4202 -6.64164 46.0833C-5.83902 46.8964 -4.65597 46.932 -3.88443 46.1889C-3.11026 45.4434 -3.09356 44.2581 -3.8985 43.435C-6.36854 40.9088 -7.96156 37.9264 -8.5868 34.4468C-8.7399 33.5949 -8.77949 32.7224 -8.8746 31.8599C-8.9595 31.0905 -8.65809 30.4758 -8.12502 29.9489C-6.97336 28.8095 -5.54241 28.1395 -4.05037 27.6137C0.573597 25.9834 5.36025 25.5442 10.2295 25.758C13.6936 25.9103 17.1076 26.3787 20.3635 27.6105C21.5678 28.0947 22.7258 28.6867 23.8235 29.3793C24.9719 30.0728 25.3471 31.1239 25.2238 32.5144C24.8421 36.8219 23.1777 40.4925 20.1429 43.5632C19.9642 43.736 19.822 43.943 19.7249 44.1718C19.6278 44.4006 19.5777 44.6467 19.5776 44.8953C19.5775 45.1439 19.6273 45.39 19.7242 45.6189C19.8211 45.8478 19.9631 46.0549 20.1416 46.2279C20.3166 46.4107 20.5266 46.5562 20.7592 46.6559C20.9917 46.7556 21.242 46.8073 21.495 46.808C21.748 46.8086 21.9986 46.7583 22.2317 46.6598C22.4647 46.5614 22.6756 46.417 22.8515 46.2352C25.9094 43.2067 27.881 39.5793 28.6701 35.3461C28.8795 34.1015 29.0015 32.8437 29.0351 31.582C29.1359 29.2759 27.8729 27.674 26.1478 26.373H26.1474Z" fill="#F20089"/>
<path id="&#208;&#154;&#208;&#190;&#208;&#189;&#209;&#130;&#209;&#131;&#209;&#128; 245" d="M8.14763 17.4242C15.4161 17.4328 21.3855 11.5451 21.4755 4.41829C21.5703 -3.00928 15.6715 -9.05291 8.3414 -9.14461C0.885682 -9.2374 -5.07382 -3.15078 -5.08789 3.98497C-5.10336 11.4633 0.764748 17.4161 8.14763 17.4248M8.12722 -5.34198C13.3497 -5.35575 17.6626 -1.07866 17.6636 4.11472C17.6605 6.63087 16.6618 9.04354 14.8855 10.8256C13.1092 12.6077 10.6998 13.6143 8.18366 13.6256C2.99353 13.641 -1.28742 9.34599 -1.29624 4.11472C-1.30459 -1.01618 2.99229 -5.32791 8.12644 -5.34136L8.12722 -5.34198Z" fill="#F20089"/>
</g>
</g>
</g>
</g>
</svg>
