<svg width="288" height="56" viewBox="0 0 288 56" fill="none" xmlns="http://www.w3.org/2000/svg">
<rect width="288" height="56" rx="8" fill="#FF2222"/>
<path d="M28 28V23.5M28 31.3354V31.375M37 28C37 32.9706 32.9706 37 28 37C23.0294 37 19 32.9706 19 28C19 23.0294 23.0294 19 28 19C32.9706 19 37 23.0294 37 28Z" stroke="white" stroke-width="2" stroke-linecap="round" stroke-linejoin="round"/>
<path d="M57.1691 34V23.549H58.5521V27.8406H63.9844V23.549H65.3674V34H63.9844V29.0739H58.5521V34H57.1691ZM72.6959 31.5619L74.0219 31.7259C73.8128 32.5006 73.4254 33.1018 72.8599 33.5295C72.2943 33.9572 71.5719 34.1711 70.6927 34.1711C69.5853 34.1711 68.7061 33.8313 68.055 33.1517C67.4086 32.4673 67.0854 31.5096 67.0854 30.2787C67.0854 29.005 67.4134 28.0165 68.0692 27.3131C68.7251 26.6097 69.5758 26.258 70.6214 26.258C71.6337 26.258 72.4606 26.6026 73.1022 27.2917C73.7438 27.9808 74.0646 28.9504 74.0646 30.2003C74.0646 30.2763 74.0623 30.3904 74.0575 30.5425H68.4114C68.459 31.3742 68.6942 32.011 69.1172 32.453C69.5402 32.895 70.0677 33.116 70.6998 33.116C71.1703 33.116 71.5719 32.9924 71.9046 32.7453C72.2373 32.4982 72.501 32.1037 72.6959 31.5619ZM68.4827 29.4874H72.7102C72.6531 28.8506 72.4915 28.3729 72.2254 28.0545C71.8167 27.5602 71.2868 27.3131 70.6356 27.3131C70.0463 27.3131 69.5497 27.5103 69.1457 27.9048C68.7465 28.2993 68.5255 28.8268 68.4827 29.4874ZM75.6401 26.4291H76.9233V32.2035L80.4807 26.4291H81.8637V34H80.5805V28.2612L77.0231 34H75.6401V26.4291ZM85.4709 30.5781V29.5729C86.0127 29.5682 86.381 29.5468 86.5759 29.5088C86.7755 29.4708 86.9632 29.3567 87.1391 29.1666C87.3149 28.9765 87.4028 28.7389 87.4028 28.4537C87.4028 28.1068 87.2864 27.8311 87.0535 27.6268C86.8254 27.4176 86.5284 27.3131 86.1624 27.3131C85.44 27.3131 84.9339 27.7384 84.6439 28.5892L83.4249 28.3896C83.8051 26.9685 84.7224 26.258 86.1767 26.258C86.9846 26.258 87.6167 26.479 88.0729 26.921C88.534 27.363 88.7645 27.8905 88.7645 28.5036C88.7645 29.1215 88.465 29.6133 87.8662 29.9793C88.2464 30.1837 88.5316 30.4451 88.7217 30.7635C88.9118 31.0771 89.0068 31.4502 89.0068 31.8827C89.0068 32.5623 88.7597 33.1136 88.2654 33.5366C87.7712 33.9596 87.0797 34.1711 86.1909 34.1711C84.4657 34.1711 83.4653 33.4035 83.1896 31.8685L84.3944 31.6118C84.5037 32.0966 84.7247 32.472 85.0574 32.7382C85.3949 33.0043 85.7798 33.1374 86.2123 33.1374C86.6448 33.1374 87.0036 33.0162 87.2888 32.7738C87.5787 32.5267 87.7236 32.213 87.7236 31.8328C87.7236 31.5382 87.6333 31.2815 87.4527 31.0629C87.2721 30.8443 87.0797 30.7088 86.8753 30.6565C86.6709 30.5995 86.3002 30.571 85.7632 30.571C85.7204 30.571 85.623 30.5734 85.4709 30.5781ZM90.5039 26.4291H93.4624C94.1896 26.4291 94.729 26.4909 95.0807 26.6145C95.4371 26.7333 95.7413 26.9543 95.9932 27.2774C96.2498 27.6006 96.3781 27.988 96.3781 28.4395C96.3781 28.8007 96.3021 29.1167 96.15 29.3876C96.0027 29.6537 95.7793 29.8771 95.4799 30.0577C95.8363 30.1765 96.131 30.3999 96.3639 30.7278C96.6015 31.051 96.7203 31.436 96.7203 31.8827C96.6728 32.6004 96.4161 33.1326 95.9504 33.4796C95.4846 33.8265 94.8074 34 93.9187 34H90.5039V26.4291ZM91.7871 29.6157H93.1559C93.7024 29.6157 94.0779 29.5872 94.2822 29.5302C94.4866 29.4731 94.6696 29.3591 94.8312 29.188C94.9927 29.0121 95.0735 28.803 95.0735 28.5606C95.0735 28.1614 94.931 27.8834 94.6458 27.7266C94.3654 27.5697 93.883 27.4913 93.1986 27.4913H91.7871V29.6157ZM91.7871 32.9449H93.4767C94.2038 32.9449 94.7028 32.8618 94.9737 32.6954C95.2446 32.5243 95.3872 32.232 95.4015 31.8186C95.4015 31.5762 95.323 31.3528 95.1662 31.1484C95.0094 30.9393 94.805 30.8086 94.5531 30.7563C94.3012 30.6993 93.8973 30.6708 93.3412 30.6708H91.7871V32.9449ZM103.265 31.5619L104.591 31.7259C104.382 32.5006 103.994 33.1018 103.429 33.5295C102.863 33.9572 102.141 34.1711 101.261 34.1711C100.154 34.1711 99.2748 33.8313 98.6237 33.1517C97.9774 32.4673 97.6542 31.5096 97.6542 30.2787C97.6542 29.005 97.9821 28.0165 98.638 27.3131C99.2938 26.6097 100.145 26.258 101.19 26.258C102.202 26.258 103.029 26.6026 103.671 27.2917C104.313 27.9808 104.633 28.9504 104.633 30.2003C104.633 30.2763 104.631 30.3904 104.626 30.5425H98.9802C99.0277 31.3742 99.263 32.011 99.6859 32.453C100.109 32.895 100.636 33.116 101.269 33.116C101.739 33.116 102.141 32.9924 102.473 32.7453C102.806 32.4982 103.07 32.1037 103.265 31.5619ZM99.0515 29.4874H103.279C103.222 28.8506 103.06 28.3729 102.794 28.0545C102.385 27.5602 101.855 27.3131 101.204 27.3131C100.615 27.3131 100.118 27.5103 99.7145 27.9048C99.3152 28.2993 99.0942 28.8268 99.0515 29.4874ZM111.149 31.2269L112.411 31.3908C112.273 32.2605 111.919 32.9425 111.349 33.4368C110.783 33.9263 110.087 34.1711 109.26 34.1711C108.224 34.1711 107.39 33.8337 106.758 33.1588C106.13 32.4792 105.817 31.5073 105.817 30.2431C105.817 29.4256 105.952 28.7104 106.223 28.0973C106.494 27.4842 106.905 27.0256 107.456 26.7214C108.012 26.4125 108.616 26.258 109.267 26.258C110.089 26.258 110.762 26.4671 111.285 26.8854C111.807 27.2988 112.143 27.8882 112.29 28.6533L111.042 28.8458C110.923 28.3373 110.712 27.9547 110.408 27.698C110.108 27.4414 109.745 27.3131 109.317 27.3131C108.671 27.3131 108.146 27.546 107.742 28.0117C107.338 28.4727 107.136 29.2046 107.136 30.2074C107.136 31.2245 107.33 31.9635 107.72 32.4245C108.11 32.8855 108.618 33.116 109.246 33.116C109.75 33.116 110.17 32.9616 110.508 32.6526C110.845 32.3437 111.059 31.8685 111.149 31.2269ZM112.817 26.4291H118.97V27.4913H116.532V34H115.255V27.4913H112.817V26.4291ZM120.203 26.4291H121.486V29.5801H125.043V26.4291H126.327V34H125.043V30.6423H121.486V34H120.203V26.4291ZM133.206 33.0661C132.731 33.4701 132.272 33.7552 131.83 33.9216C131.393 34.0879 130.922 34.1711 130.419 34.1711C129.587 34.1711 128.948 33.9691 128.501 33.5651C128.054 33.1564 127.831 32.636 127.831 32.0039C127.831 31.6332 127.914 31.2958 128.08 30.9916C128.251 30.6827 128.472 30.4355 128.743 30.2502C129.019 30.0648 129.328 29.9246 129.67 29.8296C129.922 29.7631 130.302 29.6989 130.811 29.6371C131.847 29.5135 132.61 29.3662 133.099 29.1951C133.104 29.0193 133.106 28.9076 133.106 28.8601C133.106 28.3373 132.985 27.9689 132.743 27.7551C132.415 27.4652 131.928 27.3202 131.281 27.3202C130.678 27.3202 130.231 27.4271 129.941 27.641C129.656 27.8501 129.444 28.2232 129.307 28.7603L128.052 28.5892C128.166 28.0521 128.354 27.6196 128.615 27.2917C128.876 26.959 129.254 26.7048 129.749 26.5289C130.243 26.3483 130.815 26.258 131.467 26.258C132.113 26.258 132.638 26.334 133.042 26.4861C133.446 26.6382 133.743 26.8307 133.933 27.0636C134.123 27.2917 134.256 27.5816 134.332 27.9333C134.375 28.1519 134.397 28.5464 134.397 29.1167V30.8276C134.397 32.0205 134.423 32.7762 134.475 33.0946C134.532 33.4083 134.641 33.7101 134.803 34H133.463C133.33 33.7339 133.244 33.4226 133.206 33.0661ZM133.099 30.2003C132.633 30.3904 131.935 30.552 131.003 30.6851C130.476 30.7611 130.103 30.8466 129.884 30.9417C129.665 31.0368 129.497 31.177 129.378 31.3623C129.259 31.5429 129.2 31.7449 129.2 31.9683C129.2 32.3104 129.328 32.5956 129.585 32.8237C129.846 33.0519 130.226 33.1659 130.725 33.1659C131.219 33.1659 131.659 33.059 132.044 32.8451C132.429 32.6265 132.712 32.3295 132.892 31.954C133.03 31.6641 133.099 31.2364 133.099 30.6708V30.2003ZM142.352 26.4291V34H141.076V31.0486H140.335C139.883 31.0486 139.546 31.108 139.323 31.2269C139.104 31.3409 138.783 31.714 138.36 32.3461L137.241 34H135.651L137.034 31.9611C137.457 31.3385 137.878 30.9868 138.296 30.9061C137.564 30.8062 137.02 30.5425 136.664 30.1147C136.312 29.687 136.136 29.1951 136.136 28.6391C136.136 27.9832 136.367 27.4509 136.828 27.0422C137.293 26.6335 137.966 26.4291 138.845 26.4291H142.352ZM141.076 27.4913H139.251C138.486 27.4913 137.992 27.6101 137.769 27.8478C137.55 28.0854 137.441 28.3634 137.441 28.6818C137.441 29.1333 137.602 29.466 137.925 29.6799C138.253 29.889 138.831 29.9936 139.658 29.9936H141.076V27.4913ZM147.892 30.2146C147.892 28.8125 148.281 27.7741 149.061 27.0992C149.712 26.5384 150.506 26.258 151.442 26.258C152.483 26.258 153.333 26.6002 153.994 27.2846C154.655 27.9642 154.985 28.9052 154.985 30.1076C154.985 31.0819 154.838 31.8494 154.543 32.4103C154.253 32.9663 153.828 33.3988 153.267 33.7077C152.711 34.0166 152.102 34.1711 151.442 34.1711C150.382 34.1711 149.524 33.8313 148.868 33.1517C148.217 32.472 147.892 31.493 147.892 30.2146ZM149.21 30.2146C149.21 31.1841 149.422 31.9112 149.845 32.396C150.268 32.876 150.8 33.116 151.442 33.116C152.079 33.116 152.609 32.8736 153.032 32.3889C153.455 31.9041 153.666 31.1651 153.666 30.1718C153.666 29.2355 153.452 28.5274 153.024 28.0474C152.601 27.5626 152.074 27.3202 151.442 27.3202C150.8 27.3202 150.268 27.5602 149.845 28.0402C149.422 28.5202 149.21 29.245 149.21 30.2146ZM156.539 26.4291H157.822V32.9378H160.745V26.4291H162.028V32.9378H164.958V26.4291H166.234V34H156.539V26.4291ZM168.216 26.4291H169.499V32.2035L173.057 26.4291H174.44V34H173.156V28.2612L169.599 34H168.216V26.4291ZM181.918 23.2995L183.051 23.3138C182.999 23.8223 182.885 24.1764 182.709 24.376C182.538 24.5756 182.315 24.7039 182.039 24.7609C181.768 24.818 181.233 24.8465 180.435 24.8465C179.375 24.8465 178.653 24.9487 178.268 25.153C177.883 25.3574 177.605 25.6853 177.434 26.1368C177.267 26.5836 177.175 27.161 177.156 27.8691C177.479 27.3891 177.857 27.0303 178.289 26.7927C178.722 26.5503 179.209 26.4291 179.751 26.4291C180.744 26.4291 181.566 26.7713 182.217 27.4557C182.868 28.1353 183.194 29.0573 183.194 30.2217C183.194 31.1057 183.03 31.8304 182.702 32.396C182.374 32.9616 181.984 33.3988 181.533 33.7077C181.086 34.0166 180.475 34.1711 179.701 34.1711C178.803 34.1711 178.104 33.9667 177.605 33.558C177.106 33.1445 176.723 32.617 176.457 31.9754C176.191 31.3338 176.058 30.2169 176.058 28.6248C176.058 26.624 176.395 25.2766 177.07 24.5827C177.75 23.8888 178.793 23.5419 180.2 23.5419C181.074 23.5419 181.571 23.5276 181.69 23.4991C181.809 23.4706 181.885 23.4041 181.918 23.2995ZM181.854 30.186C181.854 29.3971 181.666 28.7507 181.291 28.247C180.92 27.7432 180.395 27.4913 179.715 27.4913C179.007 27.4913 178.46 27.7575 178.075 28.2897C177.69 28.822 177.498 29.5326 177.498 30.4213C177.498 31.3005 177.709 31.973 178.132 32.4388C178.56 32.9045 179.085 33.1374 179.708 33.1374C180.345 33.1374 180.86 32.8689 181.255 32.3318C181.654 31.79 181.854 31.0748 181.854 30.186ZM184.734 26.4291H186.017V29.7013C186.426 29.7013 186.711 29.6229 186.872 29.466C187.039 29.3092 187.281 28.8529 187.6 28.0973C187.852 27.4984 188.056 27.104 188.213 26.9139C188.37 26.7238 188.55 26.5954 188.754 26.5289C188.959 26.4624 189.287 26.4291 189.738 26.4291H189.995V27.4913L189.638 27.4842C189.301 27.4842 189.085 27.5341 188.99 27.6339C188.89 27.7384 188.738 28.0497 188.533 28.5678C188.339 29.062 188.16 29.4042 187.999 29.5943C187.837 29.7844 187.588 29.9579 187.25 30.1147C187.802 30.2621 188.343 30.7754 188.876 31.6546L190.28 34H188.869L187.5 31.6546C187.219 31.1841 186.975 30.8752 186.766 30.7278C186.556 30.5757 186.307 30.4997 186.017 30.4997V34H184.734V26.4291ZM196.397 33.0661C195.921 33.4701 195.463 33.7552 195.021 33.9216C194.584 34.0879 194.113 34.1711 193.609 34.1711C192.778 34.1711 192.138 33.9691 191.692 33.5651C191.245 33.1564 191.021 32.636 191.021 32.0039C191.021 31.6332 191.105 31.2958 191.271 30.9916C191.442 30.6827 191.663 30.4355 191.934 30.2502C192.21 30.0648 192.519 29.9246 192.861 29.8296C193.113 29.7631 193.493 29.6989 194.001 29.6371C195.037 29.5135 195.8 29.3662 196.29 29.1951C196.294 29.0193 196.297 28.9076 196.297 28.8601C196.297 28.3373 196.176 27.9689 195.933 27.7551C195.605 27.4652 195.118 27.3202 194.472 27.3202C193.868 27.3202 193.422 27.4271 193.132 27.641C192.846 27.8501 192.635 28.2232 192.497 28.7603L191.242 28.5892C191.357 28.0521 191.544 27.6196 191.806 27.2917C192.067 26.959 192.445 26.7048 192.939 26.5289C193.433 26.3483 194.006 26.258 194.657 26.258C195.304 26.258 195.829 26.334 196.233 26.4861C196.637 26.6382 196.934 26.8307 197.124 27.0636C197.314 27.2917 197.447 27.5816 197.523 27.9333C197.566 28.1519 197.587 28.5464 197.587 29.1167V30.8276C197.587 32.0205 197.613 32.7762 197.666 33.0946C197.723 33.4083 197.832 33.7101 197.994 34H196.653C196.52 33.7339 196.435 33.4226 196.397 33.0661ZM196.29 30.2003C195.824 30.3904 195.125 30.552 194.194 30.6851C193.666 30.7611 193.293 30.8466 193.075 30.9417C192.856 31.0368 192.687 31.177 192.568 31.3623C192.45 31.5429 192.39 31.7449 192.39 31.9683C192.39 32.3104 192.519 32.5956 192.775 32.8237C193.037 33.0519 193.417 33.1659 193.916 33.1659C194.41 33.1659 194.85 33.059 195.235 32.8451C195.62 32.6265 195.902 32.3295 196.083 31.954C196.221 31.6641 196.29 31.2364 196.29 30.6708V30.2003Z" fill="white"/>
</svg>
