<svg width="32" height="32" viewBox="0 0 32 32" fill="none" xmlns="http://www.w3.org/2000/svg">
<path d="M28.3333 12.2C25.2533 7.36 20.7467 4.57333 16 4.57333C13.597 4.59097 11.2465 5.27901 9.21333 6.56C6.96493 8.00032 5.06926 9.92788 3.66666 12.2C3.01119 13.3568 2.66666 14.6637 2.66666 15.9933C2.66666 17.3229 3.01119 18.6299 3.66666 19.7867C6.74666 24.64 11.2533 27.4133 16 27.4133C18.403 27.3957 20.7534 26.7077 22.7867 25.4267C25.0351 23.9864 26.9307 22.0588 28.3333 19.7867C28.9888 18.6299 29.3333 17.3229 29.3333 15.9933C29.3333 14.6637 28.9888 13.3568 28.3333 12.2ZM16 21.3867C14.9346 21.3867 13.8932 21.0707 13.0073 20.4788C12.1215 19.887 11.4311 19.0457 11.0234 18.0614C10.6157 17.0771 10.509 15.994 10.7168 14.9491C10.9247 13.9042 11.4377 12.9444 12.191 12.1911C12.9444 11.4377 13.9042 10.9247 14.9491 10.7168C15.994 10.509 17.0771 10.6157 18.0614 11.0234C19.0457 11.4311 19.8869 12.1215 20.4788 13.0073C21.0707 13.8932 21.3867 14.9346 21.3867 16C21.3875 16.7076 21.2488 17.4085 20.9784 18.0624C20.708 18.7164 20.3113 19.3105 19.8109 19.8109C19.3105 20.3113 18.7164 20.708 18.0624 20.9784C17.4085 21.2488 16.7076 21.3875 16 21.3867Z" fill="#919191"/>
<path d="M16 12.1867C15.2477 12.188 14.5126 12.4122 13.8877 12.831C13.2627 13.2498 12.7758 13.8444 12.4885 14.5397C12.2012 15.235 12.1264 15.9998 12.2735 16.7376C12.4206 17.4754 12.783 18.1531 13.315 18.6851C13.8469 19.217 14.5246 19.5794 15.2624 19.7265C16.0002 19.8736 16.765 19.7988 17.4603 19.5115C18.1557 19.2242 18.7502 18.7373 19.169 18.1124C19.5878 17.4874 19.812 16.7523 19.8133 16C19.8139 15.4991 19.7156 15.003 19.5241 14.5401C19.3327 14.0772 19.0518 13.6566 18.6976 13.3024C18.3434 12.9482 17.9228 12.6673 17.4599 12.4759C16.997 12.2844 16.5009 12.1862 16 12.1867Z" fill="#919191"/>
</svg>
