<svg id="IMG-BG" xmlns="http://www.w3.org/2000/svg" xmlns:xlink="http://www.w3.org/1999/xlink" width="1366" height="1216" viewBox="0 0 1366 1216">
  <defs>
    <clipPath id="clip-path">
      <rect id="Прямоугольник_4" data-name="Прямоугольник 4" width="1366" height="1216" transform="translate(0 -0.012)" fill="#f4f4f4"/>
    </clipPath>
    <clipPath id="clip-path-2">
      <rect id="Прямоугольник_7" data-name="Прямоугольник 7" width="2003.917" height="1409.884"/>
    </clipPath>
    <linearGradient id="linear-gradient" x1="0.5" y1="0.656" x2="0.5" y2="-0.008" gradientUnits="objectBoundingBox">
      <stop offset="0.168" stop-color="#d7e7f7"/>
      <stop offset="0.274" stop-color="#c2d9ec"/>
      <stop offset="0.494" stop-color="#8bb3d0"/>
      <stop offset="0.806" stop-color="#3478a2"/>
      <stop offset="0.953" stop-color="#095b8c"/>
    </linearGradient>
    <linearGradient id="linear-gradient-2" x1="-0.274" y1="0.795" x2="1.347" y2="0.383" gradientUnits="objectBoundingBox">
      <stop offset="0" stop-color="#d7e7f7"/>
      <stop offset="0.18" stop-color="#c2d4eb"/>
      <stop offset="0.552" stop-color="#8ba4cc"/>
      <stop offset="0.953" stop-color="#4a6aa6"/>
    </linearGradient>
    <linearGradient id="linear-gradient-3" x1="-1.122" y1="0.792" x2="0.531" y2="0.329" xlink:href="#linear-gradient-2"/>
    <linearGradient id="linear-gradient-4" y1="0.505" x2="1.043" y2="0.463" gradientUnits="objectBoundingBox">
      <stop offset="0.035" stop-color="#1c306b"/>
      <stop offset="0.764" stop-color="#1ba0d1"/>
    </linearGradient>
    <linearGradient id="linear-gradient-5" x1="0.987" y1="0.503" x2="-0.107" y2="0.479" gradientUnits="objectBoundingBox">
      <stop offset="0.035" stop-color="#1c306b"/>
      <stop offset="0.764" stop-color="#2fa9d6"/>
    </linearGradient>
    <linearGradient id="linear-gradient-6" x1="-14.465" y1="0.733" x2="35.085" y2="-0.025" xlink:href="#linear-gradient-4"/>
    <linearGradient id="linear-gradient-8" x1="-14.465" y1="0.733" x2="35.084" y2="-0.025" xlink:href="#linear-gradient-4"/>
    <linearGradient id="linear-gradient-9" x1="-14.465" y1="0.733" x2="35.085" y2="-0.025" xlink:href="#linear-gradient-4"/>
    <linearGradient id="linear-gradient-10" x1="-14.465" y1="0.733" x2="35.084" y2="-0.025" gradientUnits="objectBoundingBox">
      <stop offset="0.055" stop-color="#1c306b"/>
      <stop offset="0.298" stop-color="#1c306b"/>
    </linearGradient>
    <linearGradient id="linear-gradient-12" x1="-14.465" y1="0.733" x2="35.084" y2="-0.025" xlink:href="#linear-gradient-10"/>
    <linearGradient id="linear-gradient-13" x1="-14.465" y1="0.733" x2="35.084" y2="-0.025" gradientUnits="objectBoundingBox">
      <stop offset="0" stop-color="#1b72a7"/>
      <stop offset="0.764" stop-color="#1ba0d1"/>
    </linearGradient>
    <linearGradient id="linear-gradient-14" x1="-14.465" y1="0.733" x2="35.085" y2="-0.025" xlink:href="#linear-gradient-13"/>
    <linearGradient id="linear-gradient-15" x1="-14.465" y1="0.733" x2="35.084" y2="-0.025" xlink:href="#linear-gradient-13"/>
    <linearGradient id="linear-gradient-17" x1="-14.465" y1="0.733" x2="35.084" y2="-0.025" xlink:href="#linear-gradient-13"/>
    <linearGradient id="linear-gradient-18" x1="0.532" y1="-0.55" x2="0.486" y2="0.718" gradientUnits="objectBoundingBox">
      <stop offset="0.045" stop-color="#b3d3f8"/>
      <stop offset="0.19" stop-color="#9ec9f0"/>
      <stop offset="0.49" stop-color="#67afda"/>
      <stop offset="0.917" stop-color="#1087b8"/>
      <stop offset="0.923" stop-color="#0f86b8"/>
    </linearGradient>
    <linearGradient id="linear-gradient-19" x1="-14.465" y1="0.733" x2="35.084" y2="-0.025" xlink:href="#linear-gradient-4"/>
    <linearGradient id="linear-gradient-20" x1="-14.465" y1="0.733" x2="35.085" y2="-0.025" xlink:href="#linear-gradient-4"/>
    <linearGradient id="linear-gradient-21" x1="-14.466" y1="0.733" x2="35.085" y2="-0.025" xlink:href="#linear-gradient-4"/>
    <linearGradient id="linear-gradient-22" x1="-14.465" y1="0.733" x2="35.085" y2="-0.025" xlink:href="#linear-gradient-10"/>
    <linearGradient id="linear-gradient-23" x1="-14.465" y1="0.733" x2="35.085" y2="-0.025" xlink:href="#linear-gradient-10"/>
    <linearGradient id="linear-gradient-25" x1="-14.465" y1="0.733" x2="35.084" y2="-0.025" xlink:href="#linear-gradient-13"/>
    <linearGradient id="linear-gradient-26" x1="-14.465" y1="0.733" x2="35.084" y2="-0.025" xlink:href="#linear-gradient-13"/>
    <linearGradient id="linear-gradient-27" x1="0.487" y1="-0.065" x2="0.509" y2="0.956" gradientUnits="objectBoundingBox">
      <stop offset="0.234" stop-color="#b3d2fa"/>
      <stop offset="0.396" stop-color="#82b7e4"/>
      <stop offset="0.577" stop-color="#519ccd"/>
      <stop offset="0.738" stop-color="#2e88bd"/>
      <stop offset="0.868" stop-color="#187cb4"/>
      <stop offset="0.952" stop-color="#1078b0"/>
    </linearGradient>
    <linearGradient id="linear-gradient-28" x1="0.384" y1="-1.277" x2="0.667" y2="2.288" gradientUnits="objectBoundingBox">
      <stop offset="0" stop-color="#fff"/>
      <stop offset="1" stop-color="#003599"/>
    </linearGradient>
    <linearGradient id="linear-gradient-29" x1="0.262" y1="-3.73" x2="0.549" y2="1.124" gradientUnits="objectBoundingBox">
      <stop offset="0" stop-color="#fff"/>
      <stop offset="1"/>
    </linearGradient>
    <linearGradient id="linear-gradient-30" x1="0.476" y1="-0.307" x2="0.507" y2="0.908" xlink:href="#linear-gradient-28"/>
    <linearGradient id="linear-gradient-31" x1="0.42" y1="-0.69" x2="0.505" y2="1.111" xlink:href="#linear-gradient-28"/>
    <linearGradient id="linear-gradient-32" x1="0.128" y1="-0.112" x2="0.929" y2="1.169" gradientUnits="objectBoundingBox">
      <stop offset="0" stop-color="#5c77a2"/>
      <stop offset="1" stop-color="#173e7d"/>
    </linearGradient>
    <linearGradient id="linear-gradient-33" x1="0.035" y1="-0.589" x2="1.472" y2="2.717" xlink:href="#linear-gradient-32"/>
    <linearGradient id="linear-gradient-34" x1="-0.881" y1="-1.803" x2="0.906" y2="1.218" xlink:href="#linear-gradient-32"/>
    <linearGradient id="linear-gradient-35" y1="0.5" x2="1" y2="0.5" gradientUnits="objectBoundingBox">
      <stop offset="0" stop-color="#fff"/>
      <stop offset="1" stop-color="#fff"/>
    </linearGradient>
  </defs>
  <g id="IMG-BG-2" data-name="IMG-BG" transform="translate(0 0.012)" clip-path="url(#clip-path)">
    <g id="M_03" transform="translate(-319.13 -96.769)">
      <g id="Сгруппировать_3" data-name="Сгруппировать 3" clip-path="url(#clip-path-2)">
        <rect id="Прямоугольник_6" data-name="Прямоугольник 6" width="2003.917" height="1409.884" fill="url(#linear-gradient)"/>
      </g>
      <g id="Сгруппировать_4" data-name="Сгруппировать 4" clip-path="url(#clip-path-2)">
        <path id="Контур_4" data-name="Контур 4" d="M1038.931-41.849C468.711-41.849,6.456,422.76,6.456,995.885S468.711,2033.619,1038.931,2033.619,2071.412,1569.01,2071.412,995.885,1609.158-41.849,1038.931-41.849Z" transform="translate(28.044 -181.784)" fill="#fff" opacity="0.1"/>
      </g>
      <g id="Сгруппировать_5" data-name="Сгруппировать 5" clip-path="url(#clip-path-2)">
        <path id="Контур_5" data-name="Контур 5" d="M724.756,30.847C368,30.847,78.784,321.531,78.784,680.109S368,1329.371,724.756,1329.371s645.976-290.684,645.976-649.262S1081.52,30.847,724.756,30.847Z" transform="translate(342.221 133.992)" fill="#fff" opacity="0.1"/>
      </g>
      <g id="Сгруппировать_6" data-name="Сгруппировать 6" clip-path="url(#clip-path-2)">
        <path id="Контур_6" data-name="Контур 6" d="M317.126,51.4l-2.192,1.828L312.643,51.5l1.82,2.2-1.721,2.3,2.271-1.749,2.213,1.65-1.741-2.124Z" transform="translate(1358.051 223.288)" fill="#fff" opacity="0.93"/>
        <path id="Контур_7" data-name="Контур 7" d="M280.562,54.333l-1.233,1.807L278,54.39l1.059,2.22-.96,2.285,1.28-1.728,1.277,1.671-1.013-2.14Z" transform="translate(1207.591 236.01)" fill="#fff" opacity="0.93"/>
        <path id="Контур_8" data-name="Контур 8" d="M308.067,27.448l-2.191,1.828-2.291-1.728,1.819,2.2-1.72,2.3,2.27-1.749,2.212,1.65-1.74-2.123Z" transform="translate(1318.704 119.229)" fill="#fff" opacity="0.93"/>
        <path id="Контур_9" data-name="Контур 9" d="M167.288,109.059l-2.192,1.828-2.291-1.729,1.819,2.2-1.72,2.3,2.27-1.749,2.212,1.649-1.74-2.124Z" transform="translate(707.19 473.726)" fill="#fff" opacity="0.93"/>
        <path id="Контур_10" data-name="Контур 10" d="M257.12,107.755l-4.2,3.507-4.394-3.316,3.489,4.227-3.3,4.417,4.355-3.356,4.245,3.165-3.338-4.075Z" transform="translate(1079.524 468.066)" fill="#fff" opacity="0.93"/>
        <path id="Контур_11" data-name="Контур 11" d="M225.921,113.853l-2.192,1.828-2.29-1.729,1.818,2.2-1.72,2.3,2.271-1.749,2.211,1.65-1.74-2.124Z" transform="translate(961.883 494.55)" fill="#fff" opacity="0.93"/>
        <path id="Контур_12" data-name="Контур 12" d="M256.146,68.152l-2.192,1.828-2.291-1.729,1.82,2.2-1.721,2.3,2.271-1.749,2.211,1.65-1.74-2.123Z" transform="translate(1093.169 296.038)" fill="#fff" opacity="0.93"/>
        <path id="Контур_13" data-name="Контур 13" d="M307.17,96.713l-3.278,2.735-3.427-2.586,2.72,3.3-2.573,3.445,3.4-2.616,3.31,2.467-2.6-3.177Z" transform="translate(1305.152 420.098)" fill="#fff" opacity="0.93"/>
        <path id="Контур_14" data-name="Контур 14" d="M94.2,91.922,92.008,93.75l-2.291-1.728,1.819,2.2-1.72,2.3,2.27-1.749,2.212,1.65L92.559,94.3Z" transform="translate(389.714 399.29)" fill="#fff" opacity="0.93"/>
        <path id="Контур_15" data-name="Контур 15" d="M186.746,51.137l-2.192,1.829-2.29-1.729,1.819,2.2-1.721,2.3,2.271-1.749,2.212,1.65-1.74-2.124Z" transform="translate(791.711 222.127)" fill="#fff" opacity="0.93"/>
        <path id="Контур_16" data-name="Контур 16" d="M211.964,60.765l-1.819-2.2,1.72-2.3-2.192,1.829-2.292-1.729,1.741,2.282-1.641,2.223,2.113-1.749Z" transform="translate(900.822 244.376)" fill="#fff" opacity="0.93"/>
        <path id="Контур_17" data-name="Контур 17" d="M338.168,86.278l-1.818-2.2,1.72-2.3L335.877,83.6l-2.291-1.728,1.74,2.281-1.642,2.224,2.114-1.749Z" transform="translate(1449.026 355.205)" fill="#fff" opacity="0.93"/>
        <path id="Контур_18" data-name="Контур 18" d="M365.464,77.432l-1.819-2.2,1.72-2.3-2.192,1.828-2.291-1.728,1.741,2.282-1.642,2.223,2.113-1.749Z" transform="translate(1567.59 316.774)" fill="#fff" opacity="0.93"/>
        <path id="Контур_19" data-name="Контур 19" d="M24.719,96.859l-1.819-2.2,1.72-2.3-2.192,1.828-2.291-1.728,1.74,2.282-1.641,2.223,2.113-1.749Z" transform="translate(87.474 401.161)" fill="#fff" opacity="0.93"/>
        <path id="Контур_20" data-name="Контур 20" d="M27.918,121.649l-1.819-2.2,1.72-2.3-2.192,1.828-2.291-1.728,1.74,2.282-1.641,2.223L25.549,120Z" transform="translate(101.369 508.844)" fill="#fff" opacity="0.93"/>
        <path id="Контур_21" data-name="Контур 21" d="M59.236,132.619l-1.82-2.2,1.721-2.3-2.192,1.828-2.292-1.728,1.741,2.282-1.642,2.223,2.114-1.749Z" transform="translate(237.402 556.495)" fill="#fff" opacity="0.93"/>
        <path id="Контур_22" data-name="Контур 22" d="M50.792,95.252l-1.819-2.2,1.72-2.3L48.5,92.574,46.21,90.846l1.74,2.282-1.641,2.223L48.422,93.6Z" transform="translate(200.727 394.184)" fill="#fff" opacity="0.93"/>
        <path id="Контур_23" data-name="Контур 23" d="M56.906,98.347l-1.819-2.2,1.72-2.3-2.192,1.828-2.29-1.728,1.74,2.282-1.642,2.223L54.536,96.7Z" transform="translate(227.284 407.625)" fill="#fff" opacity="0.93"/>
        <path id="Контур_24" data-name="Контур 24" d="M79.356,80.043l-1.819-2.2,1.72-2.3-2.192,1.829-2.291-1.729,1.74,2.282-1.642,2.223,2.114-1.749Z" transform="translate(324.806 328.119)" fill="#fff" opacity="0.93"/>
        <path id="Контур_25" data-name="Контур 25" d="M208.567,126.72l-1.818-2.2,1.719-2.3-2.192,1.828-2.29-1.729,1.739,2.282-1.64,2.223,2.113-1.749Z" transform="translate(886.074 530.87)" fill="#fff" opacity="0.93"/>
        <path id="Контур_26" data-name="Контур 26" d="M369.9,122.372l-1.819-2.2,1.72-2.3-2.192,1.829-2.291-1.729,1.741,2.282-1.642,2.223,2.113-1.749Z" transform="translate(1586.862 511.982)" fill="#fff" opacity="0.93"/>
        <path id="Контур_27" data-name="Контур 27" d="M357.277,104.825l-1.82-2.2,1.721-2.3-2.192,1.827-2.291-1.728,1.741,2.282-1.642,2.223,2.113-1.749Z" transform="translate(1532.029 435.767)" fill="#fff" opacity="0.93"/>
        <path id="Контур_28" data-name="Контур 28" d="M362.284,101.431l-1.818-2.2,1.719-2.3-2.191,1.828L357.7,97.026l1.741,2.282-1.641,2.223,2.113-1.749Z" transform="translate(1553.778 421.027)" fill="#fff" opacity="0.93"/>
        <path id="Контур_29" data-name="Контур 29" d="M332.821,121.94l-1.819-2.2,1.72-2.3-2.192,1.828-2.292-1.728,1.741,2.282-1.642,2.223,2.114-1.749Z" transform="translate(1425.798 510.111)" fill="#fff" opacity="0.93"/>
        <path id="Контур_30" data-name="Контур 30" d="M312.481,132.188l-1.819-2.2,1.72-2.3-2.192,1.828-2.291-1.728,1.741,2.282L308,132.288l2.114-1.749Z" transform="translate(1337.442 554.623)" fill="#fff" opacity="0.93"/>
        <path id="Контур_31" data-name="Контур 31" d="M278.4,125.395l-1.819-2.2,1.72-2.3-2.192,1.828-2.291-1.729,1.74,2.282-1.641,2.223,2.113-1.749Z" transform="translate(1189.395 525.116)" fill="#fff" opacity="0.93"/>
        <path id="Контур_32" data-name="Контур 32" d="M294.818,75.5,293,73.3l1.719-2.3-2.192,1.829L290.236,71.1l1.741,2.282L290.335,75.6l2.113-1.749Z" transform="translate(1260.721 308.405)" fill="#fff" opacity="0.93"/>
        <path id="Контур_33" data-name="Контур 33" d="M301.589,78.713l-1.819-2.2,1.721-2.3L299.3,76.035l-2.291-1.728,1.74,2.282-1.641,2.223,2.113-1.748Z" transform="translate(1290.138 322.342)" fill="#fff" opacity="0.93"/>
        <path id="Контур_34" data-name="Контур 34" d="M277.129,88.025l-1.818-2.2,1.719-2.3-2.191,1.827-2.291-1.728,1.74,2.282-1.64,2.223,2.113-1.749Z" transform="translate(1183.89 362.795)" fill="#fff" opacity="0.93"/>
        <path id="Контур_35" data-name="Контур 35" d="M248.69,49.3l-1.819-2.2,1.72-2.3L246.4,46.623l-2.289-1.729,1.74,2.282L244.207,49.4l2.113-1.749Z" transform="translate(1060.355 194.577)" fill="#fff" opacity="0.93"/>
        <path id="Контур_36" data-name="Контур 36" d="M290.681,38.465l-1.818-2.2,1.719-2.3-2.192,1.828L286.1,34.059l1.74,2.282-1.64,2.223,2.112-1.749Z" transform="translate(1242.753 147.514)" fill="#fff" opacity="0.93"/>
        <path id="Контур_37" data-name="Контур 37" d="M120.47,116.947l-3.278,2.736-3.427-2.586,2.72,3.295-2.573,3.445,3.4-2.616,3.31,2.468-2.6-3.177Z" transform="translate(494.168 507.992)" fill="#fff" opacity="0.93"/>
        <path id="Контур_38" data-name="Контур 38" d="M242.375,85.119,239.1,87.854l-3.427-2.586,2.72,3.3-2.572,3.445,3.4-2.616,3.31,2.467-2.6-3.177Z" transform="translate(1023.696 369.736)" fill="#fff" opacity="0.93"/>
        <path id="Контур_39" data-name="Контур 39" d="M152.321,37.026l-2.192,1.827-2.291-1.728,1.819,2.2-1.72,2.3,2.27-1.749,2.213,1.649-1.74-2.123Z" transform="translate(642.179 160.832)" fill="#fff" opacity="0.93"/>
        <path id="Контур_40" data-name="Контур 40" d="M115.758,39.954l-1.234,1.807L113.2,40.011l1.059,2.22-.96,2.286,1.28-1.728,1.278,1.671-1.013-2.14Z" transform="translate(491.719 173.553)" fill="#fff" opacity="0.93"/>
        <path id="Контур_41" data-name="Контур 41" d="M143.262,13.07,141.071,14.9l-2.29-1.729,1.818,2.2-1.719,2.3,2.27-1.749,2.212,1.65-1.74-2.124Z" transform="translate(602.833 56.773)" fill="#fff" opacity="0.93"/>
        <path id="Контур_42" data-name="Контур 42" d="M92.317,93.377l-4.2,3.508-4.4-3.317,3.49,4.227-3.3,4.417,4.355-3.356,4.244,3.165-3.339-4.075Z" transform="translate(363.651 405.608)" fill="#fff" opacity="0.93"/>
        <path id="Контур_43" data-name="Контур 43" d="M61.118,99.474,58.926,101.3l-2.291-1.728,1.819,2.2-1.721,2.3L59,102.33l2.212,1.65-1.74-2.123Z" transform="translate(246.011 432.093)" fill="#fff" opacity="0.93"/>
        <path id="Контур_44" data-name="Контур 44" d="M91.342,53.774,89.151,55.6l-2.291-1.728,1.819,2.2-1.719,2.3,2.27-1.749,2.212,1.65L89.7,56.155Z" transform="translate(377.297 233.581)" fill="#fff" opacity="0.93"/>
        <path id="Контур_45" data-name="Контур 45" d="M142.367,82.334l-3.279,2.735-3.427-2.586,2.722,3.3-2.573,3.445,3.4-2.617,3.31,2.468-2.6-3.177Z" transform="translate(589.28 357.642)" fill="#fff" opacity="0.93"/>
        <path id="Контур_46" data-name="Контур 46" d="M173.364,71.9l-1.819-2.2,1.72-2.3-2.192,1.828-2.29-1.729,1.74,2.282L168.882,72l2.113-1.749Z" transform="translate(733.155 292.748)" fill="#fff" opacity="0.93"/>
        <path id="Контур_47" data-name="Контур 47" d="M200.66,63.053l-1.819-2.2,1.72-2.3-2.192,1.828-2.291-1.728,1.741,2.282-1.642,2.223,2.114-1.749Z" transform="translate(851.718 254.317)" fill="#fff" opacity="0.93"/>
        <path id="Контур_48" data-name="Контур 48" d="M205.1,107.993l-1.819-2.2,1.72-2.3-2.192,1.829-2.291-1.729,1.74,2.282-1.641,2.224,2.114-1.749Z" transform="translate(870.991 449.525)" fill="#fff" opacity="0.93"/>
        <path id="Контур_49" data-name="Контур 49" d="M192.473,90.447l-1.82-2.2,1.721-2.3-2.192,1.828-2.291-1.728,1.74,2.282-1.642,2.223L190.1,88.8Z" transform="translate(816.157 373.31)" fill="#fff" opacity="0.93"/>
        <path id="Контур_50" data-name="Контур 50" d="M197.48,87.054l-1.819-2.2,1.72-2.3-2.192,1.828L192.9,82.648l1.74,2.282L193,87.153,195.11,85.4Z" transform="translate(837.907 358.57)" fill="#fff" opacity="0.93"/>
        <path id="Контур_51" data-name="Контур 51" d="M168.017,107.561l-1.819-2.2,1.72-2.3-2.192,1.828-2.291-1.728,1.74,2.282-1.641,2.223,2.113-1.749Z" transform="translate(709.927 447.654)" fill="#fff" opacity="0.93"/>
        <path id="Контур_52" data-name="Контур 52" d="M147.676,117.809l-1.818-2.2,1.72-2.3-2.192,1.827-2.29-1.728,1.74,2.282-1.641,2.223,2.113-1.749Z" transform="translate(621.571 492.167)" fill="#fff" opacity="0.93"/>
        <path id="Контур_53" data-name="Контур 53" d="M113.593,111.016l-1.819-2.2,1.72-2.3-2.192,1.828-2.291-1.728,1.74,2.282-1.642,2.223,2.114-1.749Z" transform="translate(473.523 462.659)" fill="#fff" opacity="0.93"/>
        <path id="Контур_54" data-name="Контур 54" d="M130.013,61.126l-1.818-2.2,1.72-2.3-2.192,1.828-2.291-1.729L127.172,59l-1.64,2.223,2.113-1.749Z" transform="translate(544.85 245.948)" fill="#fff" opacity="0.93"/>
        <path id="Контур_55" data-name="Контур 55" d="M136.786,64.335l-1.818-2.2,1.719-2.3L134.5,61.658,132.2,59.929l1.74,2.282L132.3,64.435l2.113-1.749Z" transform="translate(574.266 259.885)" fill="#fff" opacity="0.93"/>
        <path id="Контур_56" data-name="Контур 56" d="M112.326,73.648l-1.819-2.2,1.72-2.3-2.192,1.829-2.291-1.729,1.74,2.282-1.641,2.223L109.957,72Z" transform="translate(468.018 300.337)" fill="#fff" opacity="0.93"/>
        <path id="Контур_57" data-name="Контур 57" d="M83.887,34.922l-1.819-2.2,1.72-2.3L81.6,32.244,79.3,30.516l1.74,2.281L79.4,35.021l2.114-1.749Z" transform="translate(344.482 132.12)" fill="#fff" opacity="0.93"/>
        <path id="Контур_58" data-name="Контур 58" d="M125.877,24.086l-1.818-2.2,1.721-2.3-2.192,1.828L121.3,19.681l1.74,2.282-1.641,2.223,2.113-1.749Z" transform="translate(526.882 85.057)" fill="#fff" opacity="0.93"/>
        <path id="Контур_59" data-name="Контур 59" d="M77.572,70.74l-3.279,2.735-3.427-2.586,2.721,3.3-2.573,3.445,3.4-2.617L77.72,77.48l-2.6-3.177Z" transform="translate(307.824 307.28)" fill="#fff" opacity="0.93"/>
        <path id="Контур_60" data-name="Контур 60" d="M104.94,31.956l-2.192,1.827-2.29-1.728,1.818,2.2-1.72,2.3,2.27-1.749,2.212,1.65-1.74-2.124Z" transform="translate(436.37 138.808)" fill="#fff" opacity="0.93"/>
        <path id="Контур_61" data-name="Контур 61" d="M68.379,34.884l-1.235,1.807-1.323-1.75,1.059,2.22-.96,2.286L67.2,37.719l1.278,1.671-1.013-2.14Z" transform="translate(285.91 151.529)" fill="#fff" opacity="0.93"/>
        <path id="Контур_62" data-name="Контур 62" d="M95.882,8,93.691,9.828,91.4,8.1l1.818,2.2-1.719,2.3,2.27-1.749L95.981,12.5l-1.74-2.123Z" transform="translate(397.024 34.749)" fill="#fff" opacity="0.93"/>
        <path id="Контур_63" data-name="Контур 63" d="M44.937,88.307l-4.2,3.507-4.4-3.316,3.49,4.226-3.3,4.417,4.354-3.356,4.245,3.165-3.339-4.075Z" transform="translate(157.843 383.585)" fill="#fff" opacity="0.93"/>
        <path id="Контур_64" data-name="Контур 64" d="M13.738,94.4l-2.192,1.828L9.255,94.5l1.82,2.2-1.721,2.3,2.27-1.749,2.212,1.65L12.1,96.785Z" transform="translate(40.202 410.069)" fill="#fff" opacity="0.93"/>
        <path id="Контур_65" data-name="Контур 65" d="M43.962,48.7,41.77,50.532,39.479,48.8l1.819,2.2-1.719,2.3,2.27-1.749,2.212,1.65-1.74-2.123Z" transform="translate(171.488 211.557)" fill="#fff" opacity="0.93"/>
        <path id="Контур_66" data-name="Контур 66" d="M94.987,77.264,91.708,80l-3.427-2.587L91,80.709l-2.573,3.445,3.4-2.616L95.135,84l-2.6-3.177Z" transform="translate(383.471 335.617)" fill="#fff" opacity="0.93"/>
        <path id="Контур_67" data-name="Контур 67" d="M125.983,66.829l-1.818-2.2,1.719-2.3-2.192,1.828-2.29-1.728,1.74,2.282-1.64,2.223,2.113-1.749Z" transform="translate(527.346 270.724)" fill="#fff" opacity="0.93"/>
        <path id="Контур_68" data-name="Контур 68" d="M153.279,57.983l-1.819-2.2,1.72-2.3-2.192,1.829-2.29-1.729,1.74,2.282L148.8,58.083l2.114-1.749Z" transform="translate(645.91 232.293)" fill="#fff" opacity="0.93"/>
        <path id="Контур_69" data-name="Контур 69" d="M157.715,102.922l-1.818-2.2,1.72-2.3-2.192,1.828-2.291-1.729,1.74,2.282-1.641,2.223,2.113-1.749Z" transform="translate(665.182 427.502)" fill="#fff" opacity="0.93"/>
        <path id="Контур_70" data-name="Контур 70" d="M145.092,85.376l-1.819-2.2,1.72-2.3L142.8,82.7l-2.291-1.729,1.74,2.282-1.641,2.223,2.114-1.749Z" transform="translate(610.349 351.287)" fill="#fff" opacity="0.93"/>
        <path id="Контур_71" data-name="Контур 71" d="M150.1,81.983l-1.819-2.2,1.72-2.3-2.192,1.828-2.291-1.729,1.74,2.282-1.641,2.223,2.113-1.749Z" transform="translate(632.098 336.546)" fill="#fff" opacity="0.93"/>
        <path id="Контур_72" data-name="Контур 72" d="M120.637,102.492l-1.819-2.2,1.72-2.3-2.192,1.828-2.29-1.729,1.74,2.282-1.642,2.223,2.114-1.749Z" transform="translate(504.118 425.63)" fill="#fff" opacity="0.93"/>
        <path id="Контур_73" data-name="Контур 73" d="M100.3,112.739l-1.819-2.2,1.72-2.3-2.192,1.828-2.291-1.728,1.74,2.281-1.641,2.224,2.113-1.749Z" transform="translate(415.762 470.143)" fill="#fff" opacity="0.93"/>
        <path id="Контур_74" data-name="Контур 74" d="M66.214,105.946l-1.819-2.2,1.72-2.3-2.192,1.827-2.292-1.728,1.74,2.282-1.64,2.223,2.113-1.749Z" transform="translate(267.714 440.636)" fill="#fff" opacity="0.93"/>
        <path id="Контур_75" data-name="Контур 75" d="M82.633,56.056l-1.818-2.2,1.719-2.3-2.191,1.828L78.052,51.65l1.74,2.282-1.642,2.223,2.114-1.749Z" transform="translate(339.041 223.925)" fill="#fff" opacity="0.93"/>
        <path id="Контур_76" data-name="Контур 76" d="M89.406,59.265l-1.819-2.2,1.72-2.3-2.192,1.828-2.291-1.728,1.74,2.282-1.64,2.223,2.113-1.749Z" transform="translate(368.458 237.861)" fill="#fff" opacity="0.93"/>
        <path id="Контур_77" data-name="Контур 77" d="M64.946,68.577l-1.819-2.2,1.72-2.3L62.655,65.9l-2.291-1.729,1.74,2.282-1.641,2.223,2.113-1.749Z" transform="translate(262.209 278.314)" fill="#fff" opacity="0.93"/>
        <path id="Контур_78" data-name="Контур 78" d="M36.507,29.852l-1.82-2.2,1.72-2.3-2.192,1.829-2.291-1.729,1.741,2.282-1.642,2.223L34.137,28.2Z" transform="translate(138.673 110.096)" fill="#fff" opacity="0.93"/>
        <path id="Контур_79" data-name="Контур 79" d="M78.5,19.016l-1.819-2.2,1.72-2.3-2.192,1.828-2.291-1.728,1.74,2.282-1.642,2.223,2.114-1.749Z" transform="translate(321.073 63.033)" fill="#fff" opacity="0.93"/>
        <path id="Контур_80" data-name="Контур 80" d="M30.192,65.67l-3.279,2.735-3.428-2.586,2.722,3.3-2.573,3.445,3.4-2.616,3.31,2.467-2.6-3.177Z" transform="translate(102.015 285.255)" fill="#fff" opacity="0.93"/>
        <path id="Контур_81" data-name="Контур 81" d="M216.717,84.97l2.192-1.828,2.29,1.728-1.818-2.2,1.72-2.3-2.271,1.749-2.211-1.65,1.74,2.124Z" transform="translate(940.942 349.091)" fill="#fff" opacity="0.93"/>
        <path id="Контур_82" data-name="Контур 82" d="M251.716,82.007,252.95,80.2l1.323,1.75-1.058-2.22.96-2.286-1.279,1.727-1.278-1.67,1.013,2.14Z" transform="translate(1092.966 336.403)" fill="#fff" opacity="0.93"/>
        <path id="Контур_83" data-name="Контур 83" d="M225.775,108.926l2.191-1.828,2.291,1.728-1.819-2.2,1.721-2.3-2.27,1.749-2.212-1.65,1.74,2.124Z" transform="translate(980.289 453.15)" fill="#fff" opacity="0.93"/>
        <path id="Контур_84" data-name="Контур 84" d="M280.142,32.058l4.205-3.507,4.395,3.317-3.49-4.227,3.3-4.418L284.2,26.579l-4.244-3.164,3.339,4.074Z" transform="translate(1216.048 100.875)" fill="#fff" opacity="0.93"/>
        <path id="Контур_85" data-name="Контур 85" d="M307.921,22.523l2.192-1.829,2.291,1.729-1.819-2.2,1.72-2.3-2.27,1.749-2.213-1.65,1.741,2.124Z" transform="translate(1337.109 77.829)" fill="#fff" opacity="0.93"/>
        <path id="Контур_86" data-name="Контур 86" d="M277.7,68.223l2.192-1.828,2.291,1.728-1.819-2.2,1.72-2.3-2.27,1.749-2.213-1.65,1.741,2.124Z" transform="translate(1205.823 276.341)" fill="#fff" opacity="0.93"/>
        <path id="Контур_87" data-name="Контур 87" d="M228.519,41.518l3.279-2.734,3.427,2.585-2.721-3.3,2.573-3.444-3.4,2.616-3.31-2.468,2.6,3.177Z" transform="translate(991.993 150.424)" fill="#fff" opacity="0.93"/>
        <path id="Контур_88" data-name="Контур 88" d="M195.674,50.1l1.82,2.2-1.72,2.3,2.192-1.827,2.291,1.728-1.74-2.282L200.157,50l-2.114,1.748Z" transform="translate(849.966 217.175)" fill="#fff" opacity="0.93"/>
        <path id="Контур_89" data-name="Контур 89" d="M168.379,58.944l1.819,2.2-1.72,2.3,2.192-1.827,2.291,1.728-1.74-2.282,1.642-2.223-2.114,1.749Z" transform="translate(731.401 255.605)" fill="#fff" opacity="0.93"/>
        <path id="Контур_90" data-name="Контур 90" d="M163.942,14l1.819,2.2-1.72,2.3,2.191-1.828,2.292,1.728-1.741-2.282,1.642-2.223-2.114,1.749Z" transform="translate(712.13 60.396)" fill="#fff" opacity="0.93"/>
        <path id="Контур_91" data-name="Контур 91" d="M176.566,31.55l1.819,2.2-1.72,2.3,2.192-1.828,2.291,1.728-1.74-2.282,1.641-2.223L178.935,33.2Z" transform="translate(766.963 136.612)" fill="#fff" opacity="0.93"/>
        <path id="Контур_92" data-name="Контур 92" d="M171.559,34.943l1.819,2.2-1.72,2.3,2.192-1.828,2.291,1.728-1.74-2.282,1.641-2.223-2.113,1.749Z" transform="translate(745.214 151.352)" fill="#fff" opacity="0.93"/>
        <path id="Контур_93" data-name="Контур 93" d="M201.022,14.435l1.819,2.2-1.721,2.3,2.192-1.829,2.291,1.729-1.74-2.282,1.642-2.223-2.114,1.749Z" transform="translate(873.194 62.268)" fill="#fff" opacity="0.93"/>
        <path id="Контур_94" data-name="Контур 94" d="M221.362,4.187l1.82,2.2-1.72,2.3,2.192-1.828,2.291,1.729L224.2,6.311l1.641-2.224-2.113,1.749Z" transform="translate(961.549 17.755)" fill="#fff" opacity="0.93"/>
        <path id="Контур_95" data-name="Контур 95" d="M255.445,10.98l1.819,2.2-1.72,2.3,2.192-1.828,2.291,1.729-1.74-2.282,1.642-2.223-2.114,1.749Z" transform="translate(1109.597 47.263)" fill="#fff" opacity="0.93"/>
        <path id="Контур_96" data-name="Контур 96" d="M239.025,60.87l1.818,2.2-1.72,2.3,2.192-1.828,2.29,1.728-1.74-2.282,1.641-2.224-2.113,1.749Z" transform="translate(1038.271 263.973)" fill="#fff" opacity="0.93"/>
        <path id="Контур_97" data-name="Контур 97" d="M232.253,57.661l1.819,2.2-1.72,2.3,2.192-1.828,2.291,1.728-1.741-2.282,1.642-2.223-2.114,1.749Z" transform="translate(1008.854 250.037)" fill="#fff" opacity="0.93"/>
        <path id="Контур_98" data-name="Контур 98" d="M256.713,48.349l1.818,2.2-1.72,2.3L259,51.026l2.292,1.729-1.74-2.282,1.642-2.223L259.082,50Z" transform="translate(1115.103 209.584)" fill="#fff" opacity="0.93"/>
        <path id="Контур_99" data-name="Контур 99" d="M285.152,87.075l1.818,2.2-1.719,2.3,2.192-1.829,2.29,1.729-1.74-2.282,1.64-2.223-2.113,1.749Z" transform="translate(1238.638 377.801)" fill="#fff" opacity="0.93"/>
        <path id="Контур_100" data-name="Контур 100" d="M243.161,97.91l1.818,2.2-1.719,2.3,2.192-1.829,2.291,1.729L246,100.034l1.641-2.224-2.113,1.749Z" transform="translate(1056.238 424.865)" fill="#fff" opacity="0.93"/>
        <path id="Контур_101" data-name="Контур 101" d="M293.314,53.113l3.28-2.735,3.427,2.586-2.722-3.3,2.573-3.445-3.4,2.616-3.31-2.467,2.6,3.177Z" transform="translate(1273.449 200.785)" fill="#fff" opacity="0.93"/>
      </g>
      <g id="Сгруппировать_7" data-name="Сгруппировать 7" clip-path="url(#clip-path-2)">
        <path id="Контур_102" data-name="Контур 102" d="M478.566,87.812c-189.492,0-343.106,154.4-343.106,344.854S289.075,777.518,478.566,777.518s343.109-154.4,343.109-344.853S668.061,87.812,478.566,87.812Z" transform="translate(588.411 381.435)" fill="#fff" opacity="0.1"/>
      </g>
      <g id="Сгруппировать_8" data-name="Сгруппировать 8" clip-path="url(#clip-path-2)">
        <ellipse id="Эллипс_1" data-name="Эллипс 1" cx="176.07" cy="176.968" rx="176.07" ry="176.968" transform="translate(902.836 637.133)" fill="#fff" opacity="0.4"/>
      </g>
      <g id="Сгруппировать_9" data-name="Сгруппировать 9" clip-path="url(#clip-path-2)">
        <path id="Контур_103" data-name="Контур 103" d="M990.408,291.974c-3.914-2.959-44.173-88.825-47.155-91.616s-40.769-84.719-40.769-84.719L818.273,70.016,634.123,265.936l-57.811-85.778L537.546,150.17,486.885,258.1l-87.749,25.269-81.663,60.765-26.521,75.945L233.324,597.471l757.083,30.377" transform="translate(1013.51 304.132)" fill="url(#linear-gradient-2)"/>
      </g>
      <g id="Сгруппировать_10" data-name="Сгруппировать 10" clip-path="url(#clip-path-2)">
        <path id="Контур_104" data-name="Контур 104" d="M201.645,697.307l737.6-30.378L877.817,489.536,830.96,351.386l-40.844-28.124-64.134,35.2,12.374-30.908L652.483,199.189l-77.543,8.622L525.5,288.166l-114.546-148.9L295.364,185.1s-40.277,81.927-43.456,84.719L190.2,67.826,145.7,101.93s-19.585,63.247-22.014,61.749c-5.569-3.433-70.975-45.417-70.975-45.417L0,181.689" transform="translate(0.002 294.619)" fill="url(#linear-gradient-3)"/>
      </g>
      <g id="Сгруппировать_11" data-name="Сгруппировать 11" clip-path="url(#clip-path-2)">
        <path id="Контур_105" data-name="Контур 105" d="M708.378,560.063q6.683,50.97,12.518,102L0,682.616V140.243L30.3,192.7l49.2-31.472,89.032,65.19,10.845-65.19,55.976-91.208,154.079,228.3,56.5-52.434,74.371,77.4,86.9-96.869,117.924,108.9,21.047,65.492H781.65L915.409,599.405" transform="translate(0.001 304.132)" fill="url(#linear-gradient-4)"/>
      </g>
      <g id="Сгруппировать_12" data-name="Сгруппировать 12" clip-path="url(#clip-path-2)">
        <path id="Контур_106" data-name="Контур 106" d="M491.44,274.246l29.165-23.062,63.835,70.434,80.816-85.848L743.547,70.015l71.6,48.4L961.924,306.573c-8.743,43.8,5.463,350.307,0,393.136-7.892,61.875-133.186-102.7-141.351-40.862-4.855,36.774,4.276-36.815,0,0L260.489,642.882l-20.607-68.345,83.165-183.943L425.8,227.437Z" transform="translate(1041.995 304.131)" fill="url(#linear-gradient-5)"/>
      </g>
      <g id="Сгруппировать_13" data-name="Сгруппировать 13" clip-path="url(#clip-path-2)">
        <path id="Контур_107" data-name="Контур 107" d="M463.466,70.016,439.8,250.09l39.318,198.115L408.046,595.986,304.36,321.617l80.816-85.848" transform="translate(1322.074 304.132)" fill="#fff" opacity="0.12"/>
      </g>
      <g id="Сгруппировать_14" data-name="Сгруппировать 14" clip-path="url(#clip-path-2)">
        <path id="Контур_108" data-name="Контур 108" d="M64.756,70.016,84.649,221.358l52.107,25.29L50.538,278.481l-11.2,48.1,92.447,29.973-43.739,4,1.989,68.939L51.268,565.039l150.716,30.947L265.3,369.058" transform="translate(170.883 304.132)" fill="#fff" opacity="0.12"/>
      </g>
      <g id="Сгруппировать_15" data-name="Сгруппировать 15" clip-path="url(#clip-path-2)">
        <path id="Контур_109" data-name="Контур 109" d="M435.083,472.275,253.092,543.215,110.578,480.46,174.953,221.12,126.887,99.283,244.811,208.188l21.047,65.491h35.466" transform="translate(480.328 431.263)" fill="#fff" opacity="0.12"/>
      </g>
      <g id="Сгруппировать_16" data-name="Сгруппировать 16" clip-path="url(#clip-path-2)">
        <path id="Контур_110" data-name="Контур 110" d="M75.3,147.1,55.082,218.7H95.525Z" transform="translate(239.264 638.971)" fill="url(#linear-gradient-6)"/>
        <path id="Контур_111" data-name="Контур 111" d="M88.585,146.963l-20.221,71.6h40.443Z" transform="translate(296.958 638.374)" fill="url(#linear-gradient-6)"/>
        <path id="Контур_112" data-name="Контур 112" d="M107.431,148.484,91.8,203.821H123.06Z" transform="translate(398.766 644.983)" fill="url(#linear-gradient-8)"/>
        <path id="Контур_113" data-name="Контур 113" d="M73.1,145.682,48.6,232.435h49Z" transform="translate(211.091 632.81)" fill="url(#linear-gradient-9)"/>
        <path id="Контур_114" data-name="Контур 114" d="M40.912,150.927,16.41,237.68h49Z" transform="translate(71.281 655.595)" fill="url(#linear-gradient-10)"/>
        <path id="Контур_115" data-name="Контур 115" d="M38.157,157.089,22.685,211.873H53.631Z" transform="translate(98.538 682.361)" fill="url(#linear-gradient-10)"/>
        <path id="Контур_116" data-name="Контур 116" d="M24.729,159.224,9.255,214.008H40.2Z" transform="translate(40.202 691.634)" fill="url(#linear-gradient-12)"/>
        <path id="Контур_117" data-name="Контур 117" d="M133.044,148.689l-15.628,55.336h31.258Z" transform="translate(510.026 645.874)" fill="url(#linear-gradient-13)"/>
        <path id="Контур_118" data-name="Контур 118" d="M164.688,152.346l-15.629,55.336h31.257Z" transform="translate(647.479 661.755)" fill="url(#linear-gradient-14)"/>
        <path id="Контур_119" data-name="Контур 119" d="M201.024,159.172,185.4,214.508h31.258Z" transform="translate(805.315 691.41)" fill="url(#linear-gradient-15)"/>
        <path id="Контур_120" data-name="Контур 120" d="M211.429,157.089l-20.6,72.932h41.2Z" transform="translate(828.927 682.361)" fill="url(#linear-gradient-13)"/>
        <path id="Контур_121" data-name="Контур 121" d="M141.054,147.1l-19.808,70.13h39.615Z" transform="translate(526.667 638.971)" fill="url(#linear-gradient-17)"/>
      </g>
      <g id="Сгруппировать_17" data-name="Сгруппировать 17" clip-path="url(#clip-path-2)">
        <path id="Контур_122" data-name="Контур 122" d="M1117.451,233.351S476.665,61.762,0,233.351V485.87l1108.322-113.9" transform="translate(0 682.361)" fill="url(#linear-gradient-18)"/>
      </g>
      <g id="Сгруппировать_18" data-name="Сгруппировать 18" clip-path="url(#clip-path-2)">
        <path id="Контур_123" data-name="Контур 123" d="M268.773,159.708C176.994,171.355,85.834,191.08,0,221.978v207.7C54.619,301.975,153.663,220.189,268.773,159.708Z" transform="translate(0.001 693.734)" fill="#36649f" opacity="0.1"/>
      </g>
      <g id="Сгруппировать_19" data-name="Сгруппировать 19" clip-path="url(#clip-path-2)">
        <path id="Контур_124" data-name="Контур 124" d="M743.129,161.5c-72.865,3.608-146.852,3.624-218.443,17.01C336.467,225.261,162.693,306.873,26.734,450.047a65.887,65.887,0,0,1-5.018,4.755L1014,352.83l9.128-138.619S909.843,183.895,743.129,161.5Z" transform="translate(94.327 701.502)" fill="#36649f" opacity="0.1"/>
      </g>
      <g id="Сгруппировать_22" data-name="Сгруппировать 22" clip-path="url(#clip-path-2)">
        <g id="Сгруппировать_20" data-name="Сгруппировать 20" transform="translate(731.829 839.451)">
          <path id="Контур_125" data-name="Контур 125" d="M182.687,162.813c2.246-7.631,5.923-7.631,8.17,0l16.091,54.649-15.1.6,16.245,3.3L222.919,271.7l-10.757.053,11.936,3.952,1.432,4.863-25.745.331,27.269,6.488,8.952,28.764A14.357,14.357,0,0,1,226.25,334l-25.638,7.363c-7.612,2.186-20.069,2.186-27.681,0L147.294,334a14.357,14.357,0,0,1-9.756-17.848l6.706-18.551,20.841-4.678-19.66-.326L158,250.046l21.087-6.364-20.212.012,9.035-30.685,11.177-2.5L168.9,209.63l2.031-6.893,6.953-1.372-6.418-.447Z" transform="translate(-136.95 -157.089)" fill="#4a83cf"/>
        </g>
        <g id="Сгруппировать_21" data-name="Сгруппировать 21" transform="translate(781.236 839.532)" opacity="0.07">
          <path id="Контур_126" data-name="Контур 126" d="M195.844,316.084l-8.952-28.763-27.269-6.488,25.745-.33-1.432-4.863L172,271.689l10.757-.053-14.823-50.341-16.246-3.3,15.1-.6L150.7,162.745c-1.228-4.175-2.884-5.981-4.5-5.588V342.922a53.418,53.418,0,0,0,14.255-1.628l25.638-7.363A14.356,14.356,0,0,0,195.844,316.084Z" transform="translate(-146.195 -157.105)"/>
        </g>
      </g>
      <g id="Сгруппировать_25" data-name="Сгруппировать 25" clip-path="url(#clip-path-2)">
        <g id="Сгруппировать_23" data-name="Сгруппировать 23" transform="translate(865.789 801.557)">
          <path id="Контур_127" data-name="Контур 127" d="M215.883,156.737c2.646-8.985,6.975-8.985,9.622,0L244.455,221.1l-17.781.7,19.133,3.889,17.457,59.287-12.669.063,14.058,4.654,1.686,5.727-30.32.389,32.115,7.64,10.544,33.876a16.908,16.908,0,0,1-11.49,21.019l-30.194,8.671c-8.965,2.574-23.635,2.574-32.6,0L174.2,358.347a16.907,16.907,0,0,1-11.489-21.019l7.9-21.848,24.545-5.51L172,309.586l14.807-50.113,24.835-7.494-23.8.013,10.641-36.138,13.163-2.942-11.993-1.036,2.39-8.118,8.189-1.615-7.559-.527Z" transform="translate(-162.018 -149.998)" fill="#4274b8"/>
        </g>
        <g id="Сгруппировать_24" data-name="Сгруппировать 24" transform="translate(923.974 801.653)" opacity="0.07">
          <path id="Контур_128" data-name="Контур 128" d="M231.379,337.247l-10.543-33.875-32.115-7.641,30.32-.389-1.685-5.726L203.3,284.962l12.667-.063L198.51,225.612l-19.133-3.888,17.781-.7-18.951-64.361c-1.446-4.916-3.4-7.044-5.3-6.581V368.856a62.805,62.805,0,0,0,16.788-1.918l30.2-8.671A16.906,16.906,0,0,0,231.379,337.247Z" transform="translate(-172.907 -150.016)"/>
        </g>
      </g>
      <g id="Сгруппировать_28" data-name="Сгруппировать 28" clip-path="url(#clip-path-2)">
        <g id="Сгруппировать_26" data-name="Сгруппировать 26" transform="translate(599.961 869.172)">
          <path id="Контур_129" data-name="Контур 129" d="M153.311,168.443c2.016-7.722,5.314-7.722,7.33,0l14.437,55.309-13.546.6,14.577,3.342,13.3,50.95-9.652.053,10.709,4,1.285,4.92-23.1.335,24.467,6.566,8.033,29.111c2.015,7.723-1.923,15.851-8.753,18.063l-23,7.452c-6.83,2.212-18.006,2.212-24.837,0l-23-7.452c-6.83-2.212-10.768-10.34-8.753-18.063l6.017-18.774,18.7-4.735-17.64-.331,11.28-43.064,18.921-6.44-18.135.011,8.106-31.056,10.029-2.528-9.136-.89,1.82-6.977,6.24-1.388-5.759-.453Z" transform="translate(-112.273 -162.651)" fill="#4a83cf"/>
        </g>
        <g id="Сгруппировать_27" data-name="Сгруппировать 27" transform="translate(644.293 869.255)" opacity="0.07">
          <path id="Контур_130" data-name="Контур 130" d="M165.115,323.566l-8.033-29.11-24.467-6.567,23.1-.335-1.284-4.92-10.709-4,9.651-.053-13.3-50.95L125.5,224.29l13.547-.605-14.437-55.309c-1.1-4.224-2.588-6.053-4.038-5.655V350.73a42.716,42.716,0,0,0,12.79-1.648l23-7.451C163.192,339.418,167.131,331.289,165.115,323.566Z" transform="translate(-120.569 -162.667)"/>
        </g>
      </g>
      <g id="Сгруппировать_31" data-name="Сгруппировать 31" clip-path="url(#clip-path-2)">
        <g id="Сгруппировать_29" data-name="Сгруппировать 29" transform="translate(521.825 893.475)">
          <path id="Контур_131" data-name="Контур 131" d="M133.969,172.454c1.784-7.006,4.7-7.006,6.487,0l12.777,50.177-11.988.549,12.9,3.032,11.77,46.221-8.542.048,9.477,3.628,1.137,4.465-20.443.3,21.653,5.957,7.109,26.41c1.784,7.005-1.7,14.379-7.746,16.386l-20.358,6.76c-6.044,2.007-15.936,2.007-21.98,0l-20.358-6.76c-6.045-2.007-9.53-9.381-7.746-16.386l5.325-17.033,16.548-4.3-15.611-.3,9.983-39.068,16.744-5.843-16.049.011,7.174-28.174,8.876-2.294-8.086-.807,1.612-6.33,5.521-1.259-5.1-.41Z" transform="translate(-97.651 -167.199)" fill="#4579bf"/>
        </g>
        <g id="Сгруппировать_30" data-name="Сгруппировать 30" transform="translate(561.057 893.55)" opacity="0.07">
          <path id="Контур_132" data-name="Контур 132" d="M144.416,313.181l-7.108-26.409-21.653-5.958,20.443-.3-1.137-4.464-9.477-3.628,8.541-.049-11.77-46.221-12.9-3.032,11.988-.549-12.777-50.176c-.975-3.833-2.289-5.491-3.573-5.131V337.822a36.923,36.923,0,0,0,11.319-1.495l20.358-6.76C142.715,327.561,146.2,320.186,144.416,313.181Z" transform="translate(-104.992 -167.213)"/>
        </g>
      </g>
      <g id="Сгруппировать_34" data-name="Сгруппировать 34" clip-path="url(#clip-path-2)">
        <g id="Сгруппировать_32" data-name="Сгруппировать 32" transform="translate(635.879 884.649)">
          <path id="Контур_133" data-name="Контур 133" d="M155.312,170.092c1.784-6.059,4.7-6.059,6.487,0l12.777,43.394-11.988.475,12.9,2.622,11.77,39.974-8.542.042,9.477,3.137,1.137,3.862-20.443.261,21.653,5.151,7.109,22.84a11.4,11.4,0,0,1-7.746,14.172l-20.358,5.846a47.051,47.051,0,0,1-21.98,0l-20.358-5.846a11.4,11.4,0,0,1-7.746-14.172l5.325-14.73,16.549-3.715-15.611-.258,9.983-33.788,16.744-5.053-16.049.01,7.174-24.365,8.875-1.984-8.085-.7,1.612-5.474,5.522-1.089-5.1-.355Z" transform="translate(-118.994 -165.548)" fill="#4274b8"/>
        </g>
        <g id="Сгруппировать_33" data-name="Сгруппировать 33" transform="translate(675.111 884.714)" opacity="0.07">
          <path id="Контур_134" data-name="Контур 134" d="M165.759,291.8l-7.109-22.839L137,263.806l20.442-.262-1.136-3.861-9.478-3.138,8.541-.042L143.6,216.53l-12.9-2.622,11.988-.475-12.777-43.394c-.975-3.314-2.29-4.748-3.573-4.437V313.106a42.312,42.312,0,0,0,11.319-1.292l20.358-5.846A11.4,11.4,0,0,0,165.759,291.8Z" transform="translate(-126.336 -165.56)"/>
        </g>
      </g>
      <g id="Сгруппировать_37" data-name="Сгруппировать 37" clip-path="url(#clip-path-2)">
        <g id="Сгруппировать_35" data-name="Сгруппировать 35" transform="translate(658.417 852.7)">
          <path id="Контур_135" data-name="Контур 135" d="M177.077,166.308c2.646-8.985,6.975-8.985,9.621,0l18.951,64.362-17.781.7L207,235.262l17.457,59.287-12.669.063,14.058,4.653,1.686,5.727-30.32.39,32.115,7.64L239.872,346.9a16.909,16.909,0,0,1-11.489,21.019l-30.194,8.67c-8.965,2.575-23.635,2.575-32.6,0l-30.194-8.67A16.908,16.908,0,0,1,123.9,346.9l7.9-21.848,24.545-5.51-23.155-.383L148,269.044l24.835-7.494-23.8.014,10.641-36.138,13.163-2.943-11.993-1.035,2.391-8.12,8.189-1.615-7.559-.526Z" transform="translate(-123.212 -159.569)" fill="#3d6caa"/>
        </g>
        <g id="Сгруппировать_36" data-name="Сгруппировать 36" transform="translate(716.604 852.797)" opacity="0.07">
          <path id="Контур_136" data-name="Контур 136" d="M192.572,346.818l-10.544-33.875L149.914,305.3l30.32-.39-1.685-5.726-14.056-4.654,12.668-.062L159.7,235.183l-19.134-3.888,17.781-.7L139.4,166.229c-1.446-4.916-3.4-7.043-5.3-6.58V378.427a62.8,62.8,0,0,0,16.789-1.918l30.2-8.67A16.907,16.907,0,0,0,192.572,346.818Z" transform="translate(-134.101 -159.587)"/>
        </g>
      </g>
      <g id="Сгруппировать_40" data-name="Сгруппировать 40" clip-path="url(#clip-path-2)">
        <g id="Сгруппировать_38" data-name="Сгруппировать 38" transform="translate(791.262 861.327)">
          <path id="Контур_137" data-name="Контур 137" d="M193.81,166.906c2.246-7.63,5.923-7.63,8.169,0l16.091,54.649-15.1.6,16.246,3.3L234.041,275.8l-10.756.053L235.22,279.8l1.432,4.862-25.745.33,27.269,6.488,8.953,28.763a14.357,14.357,0,0,1-9.756,17.848l-25.638,7.362c-7.612,2.185-20.069,2.185-27.681,0l-25.637-7.362a14.357,14.357,0,0,1-9.756-17.848l6.706-18.551,20.84-4.678-19.659-.326,12.572-42.552,21.088-6.363-20.212.012L179.03,217.1l11.177-2.5-10.183-.88,2.03-6.894,6.954-1.371-6.419-.447Z" transform="translate(-148.072 -161.183)" fill="#3d6caa"/>
        </g>
        <g id="Сгруппировать_39" data-name="Сгруппировать 39" transform="translate(840.671 861.409)" opacity="0.07">
          <path id="Контур_138" data-name="Контур 138" d="M206.966,320.178l-8.952-28.763-27.269-6.489,25.745-.33-1.432-4.861-11.935-3.952,10.756-.053-14.823-50.341-16.246-3.3,15.1-.6-16.091-54.65c-1.228-4.174-2.884-5.98-4.5-5.587V347.016a53.355,53.355,0,0,0,14.254-1.628l25.639-7.362A14.357,14.357,0,0,0,206.966,320.178Z" transform="translate(-157.318 -161.199)"/>
        </g>
      </g>
      <g id="Сгруппировать_41" data-name="Сгруппировать 41" clip-path="url(#clip-path-2)">
        <path id="Контур_139" data-name="Контур 139" d="M320.266,151.912l-15.629,55.336h31.257Z" transform="translate(1323.277 659.871)" fill="url(#linear-gradient-19)"/>
      </g>
      <g id="Сгруппировать_42" data-name="Сгруппировать 42" clip-path="url(#clip-path-2)">
        <path id="Контур_140" data-name="Контур 140" d="M332.357,152.346l-15.628,55.336h31.258Z" transform="translate(1375.798 661.755)" fill="url(#linear-gradient-20)"/>
      </g>
      <g id="Сгруппировать_43" data-name="Сгруппировать 43" clip-path="url(#clip-path-2)">
        <path id="Контур_141" data-name="Контур 141" d="M325.193,148.689l-17.631,62.426h35.263Z" transform="translate(1335.981 645.874)" fill="url(#linear-gradient-21)"/>
      </g>
      <g id="Сгруппировать_44" data-name="Сгруппировать 44" clip-path="url(#clip-path-2)">
        <path id="Контур_142" data-name="Контур 142" d="M367.657,144.951,337.063,253.275h61.188Z" transform="translate(1464.126 629.634)" fill="url(#linear-gradient-22)"/>
      </g>
      <g id="Сгруппировать_45" data-name="Сгруппировать 45" clip-path="url(#clip-path-2)">
        <path id="Контур_143" data-name="Контур 143" d="M365.851,153.327,344.876,227.6h41.952Z" transform="translate(1498.064 666.017)" fill="url(#linear-gradient-23)"/>
      </g>
      <g id="Сгруппировать_46" data-name="Сгруппировать 46" clip-path="url(#clip-path-2)">
        <path id="Контур_144" data-name="Контур 144" d="M373.46,150l-23.833,84.381h47.665Z" transform="translate(1518.702 651.558)" fill="url(#linear-gradient-23)"/>
      </g>
      <g id="Сгруппировать_47" data-name="Сгруппировать 47" clip-path="url(#clip-path-2)">
        <path id="Контур_145" data-name="Контур 145" d="M428.02,99.474l-22.467,84.28,22.368,30.158-47.716,27.665,76.022,62.2L407.044,437.162l-167.674,15.46,85.9-189.99" transform="translate(1039.773 432.093)" fill="#fff" opacity="0.12"/>
      </g>
      <g id="Сгруппировать_48" data-name="Сгруппировать 48" clip-path="url(#clip-path-2)">
        <path id="Контур_146" data-name="Контур 146" d="M257.3,154.505l-20.6,72.932h41.2Z" transform="translate(1028.164 671.137)" fill="url(#linear-gradient-25)"/>
      </g>
      <g id="Сгруппировать_49" data-name="Сгруппировать 49" clip-path="url(#clip-path-2)">
        <path id="Контур_147" data-name="Контур 147" d="M263.309,153.327l-16.632,58.89h33.265Z" transform="translate(1071.509 666.017)" fill="url(#linear-gradient-26)"/>
      </g>
      <g id="Сгруппировать_52" data-name="Сгруппировать 52" clip-path="url(#clip-path-2)">
        <g id="Сгруппировать_50" data-name="Сгруппировать 50" transform="translate(569.012 920.438)">
          <path id="Контур_148" data-name="Контур 148" d="M147.519,177.379c2.016-6.846,5.314-6.846,7.33,0l14.437,49.033-13.546.536,14.577,2.963,13.3,45.168-9.652.047,10.709,3.546,1.284,4.362-23.1.3,24.467,5.82,8.033,25.808a12.88,12.88,0,0,1-8.753,16.012l-23,6.607c-6.83,1.962-18.006,1.962-24.837,0l-23-6.607a12.881,12.881,0,0,1-8.753-16.012l6.017-16.645,18.7-4.2-17.64-.293,11.28-38.178,18.921-5.709-18.135.011,8.106-27.532,10.029-2.242-9.136-.789,1.82-6.186,6.24-1.23-5.759-.4Z" transform="translate(-106.481 -172.245)" fill="#3d6caa"/>
        </g>
        <g id="Сгруппировать_51" data-name="Сгруппировать 51" transform="translate(613.342 920.512)" opacity="0.07">
          <path id="Контур_149" data-name="Контур 149" d="M159.323,314.9l-8.032-25.807-24.467-5.821,23.1-.3-1.284-4.361-10.709-3.546,9.651-.048-13.3-45.168-14.576-2.962,13.546-.537-14.437-49.033c-1.1-3.745-2.588-5.366-4.038-5.013V338.981a47.881,47.881,0,0,0,12.79-1.461l23-6.606A12.881,12.881,0,0,0,159.323,314.9Z" transform="translate(-114.777 -172.259)"/>
        </g>
      </g>
      <g id="Сгруппировать_55" data-name="Сгруппировать 55" clip-path="url(#clip-path-2)">
        <g id="Сгруппировать_53" data-name="Сгруппировать 53" transform="translate(343.127 962.175)">
          <path id="Контур_150" data-name="Контур 150" d="M99.077,184.417c1.713-5.815,4.515-5.815,6.228,0l12.266,41.66-11.51.455,12.385,2.517,11.3,38.376-8.2.041,9.1,3.012,1.091,3.706-19.626.252,20.787,4.946,6.825,21.926a10.945,10.945,0,0,1-7.437,13.606l-19.544,5.612a45.16,45.16,0,0,1-21.1,0L72.1,314.915a10.945,10.945,0,0,1-7.437-13.606l5.112-14.141L85.659,283.6l-14.987-.248,9.584-32.437,16.076-4.851-15.408.009,6.887-23.392,8.521-1.905-7.763-.67,1.547-5.255,5.3-1.045-4.892-.34Z" transform="translate(-64.211 -180.055)" fill="#4579bf"/>
        </g>
        <g id="Сгруппировать_54" data-name="Сгруппировать 54" transform="translate(380.792 962.238)" opacity="0.07">
          <path id="Контур_151" data-name="Контур 151" d="M109.106,301.259l-6.825-21.926-20.787-4.947,19.626-.251-1.091-3.706-9.1-3.012,8.2-.041L87.831,229l-12.384-2.516,11.509-.456L74.69,184.367c-.937-3.182-2.2-4.559-3.431-4.26V321.718a40.644,40.644,0,0,0,10.867-1.241l19.545-5.612A10.945,10.945,0,0,0,109.106,301.259Z" transform="translate(-71.259 -180.067)"/>
        </g>
      </g>
      <g id="Сгруппировать_58" data-name="Сгруппировать 58" clip-path="url(#clip-path-2)">
        <g id="Сгруппировать_56" data-name="Сгруппировать 56" transform="translate(457.531 893.474)">
          <path id="Контур_152" data-name="Контур 152" d="M133.29,173.164c2.341-7.953,6.173-7.953,8.514,0l16.771,56.96-15.735.623,16.933,3.442,15.448,52.47-11.211.054,12.44,4.119,1.493,5.068-26.834.344L179.531,303l9.331,29.979a14.964,14.964,0,0,1-10.169,18.6l-26.721,7.674c-7.933,2.278-20.917,2.278-28.85,0L96.4,351.586a14.963,14.963,0,0,1-10.168-18.6l6.99-19.335,21.721-4.876-20.491-.339,13.1-44.35,21.979-6.632-21.066.012,9.417-31.982,11.649-2.6-10.613-.917,2.116-7.185,7.248-1.429-6.69-.465Z" transform="translate(-85.619 -167.199)" fill="#3d6caa"/>
        </g>
        <g id="Сгруппировать_57" data-name="Сгруппировать 57" transform="translate(509.027 893.56)" opacity="0.07">
          <path id="Контур_153" data-name="Контур 153" d="M147,332.914l-9.331-29.979-28.421-6.763,26.833-.344-1.492-5.067-12.44-4.119,11.211-.055-15.448-52.47-16.933-3.441,15.735-.624-16.771-56.96c-1.28-4.35-3.006-6.233-4.69-5.823V360.886a55.6,55.6,0,0,0,14.858-1.7l26.722-7.673A14.964,14.964,0,0,0,147,332.914Z" transform="translate(-95.256 -167.215)"/>
        </g>
      </g>
      <g id="Сгруппировать_59" data-name="Сгруппировать 59" clip-path="url(#clip-path-2)">
        <path id="Контур_154" data-name="Контур 154" d="M2003.917,204.473S1533.3,71.956,1001.959,260.48C582.623,409.263,0,413.635,0,413.635V718.25H2003.917" transform="translate(0 691.634)" fill="url(#linear-gradient-27)"/>
      </g>
      <g id="Сгруппировать_60" data-name="Сгруппировать 60" clip-path="url(#clip-path-2)">
        <path id="Контур_155" data-name="Контур 155" d="M883.7,321.381V204.435S616.7,129.314,257.889,172.756C471.6,188.3,682.232,243.493,883.7,321.381Z" transform="translate(1120.213 691.672)" opacity="0.3" fill="url(#linear-gradient-28)"/>
      </g>
      <g id="Сгруппировать_61" data-name="Сгруппировать 61" clip-path="url(#clip-path-2)">
        <path id="Контур_156" data-name="Контур 156" d="M502.147,338.636V289.141q-77.755-35.1-156.418-68.109Q426.185,276.777,502.147,338.636Z" transform="translate(1501.77 960.118)" opacity="0.16" fill="url(#linear-gradient-29)"/>
      </g>
      <g id="Сгруппировать_62" data-name="Сгруппировать 62" clip-path="url(#clip-path-2)">
        <path id="Контур_157" data-name="Контур 157" d="M1529.986,645.779c-113.517-95.4-235.988-179.5-365.159-252.611A2472.977,2472.977,0,0,0,895.018,260.924c-71.265-29.589-145.455-57.383-221.533-73.751q-15.75-.721-31.539-.854c-13.1-.087-23.788-3.878-32.179-9.953-1.459-.175-2.924-.293-4.383-.457-11.813,3.891-23.648,7.885-35.528,12.1-147.437,52.311-315,86.715-470.379,109.408,96.13,70.3,184.865,150.917,260.463,243.283,19.5,23.829,23.392,57.026,0,80.539-20.161,20.263-60.676,23.769-80.13,0-3.206-3.916-6.5-7.752-9.748-11.627,1.029,13.681-3.8,26.215-12.133,36.169Z" transform="translate(432.104 764.105)" opacity="0.2" fill="url(#linear-gradient-30)"/>
      </g>
      <g id="Сгруппировать_63" data-name="Сгруппировать 63" clip-path="url(#clip-path-2)">
        <path id="Контур_158" data-name="Контур 158" d="M396.108,305.946c6.122,24.737-10.565,90.535,16.863,79.648,28.572-11.341-7.193,61.11-39.574,70.055-27,7.457-36.232-2.991-41.762-33.267-17.069-93.458-35-135.822-82.866-217.861C100.847,216.111,0,216.878,0,216.878V521.494H529.178C492.848,438.11,450.272,344.9,396.108,305.946Z" transform="translate(0.001 888.39)" opacity="0.9" fill="url(#linear-gradient-31)"/>
      </g>
      <g id="Сгруппировать_64" data-name="Сгруппировать 64" opacity="0.4" clip-path="url(#clip-path-2)">
        <path id="Контур_159" data-name="Контур 159" d="M522.719,513.228,300.693,358.505c-.9-.626-.756-1.315.319-1.532l145.2-29.188c1.074-.217,1.117-.715.094-1.108L133.158,206.261c-1.023-.394-.983-.9.089-1.134l69.215-14.875a8.843,8.843,0,0,1,3.847.19L622.214,323.787c1.043.335,1.084.986.09,1.447L509.616,377.509c-.994.46-.993,1.214,0,1.674L808.937,517.346" transform="translate(575.187 825.851)" fill="url(#linear-gradient-32)"/>
      </g>
      <g id="Сгруппировать_65" data-name="Сгруппировать 65" opacity="0.4" clip-path="url(#clip-path-2)">
        <path id="Контур_160" data-name="Контур 160" d="M557.46,319.522S239.7,217.491,153.14,190.069c-6.659,2.487.017.259-9.083,2.1,79.724,25.258,413.4,138.295,413.4,138.295a19.106,19.106,0,0,1,1.794.717C566.533,327.317,565.92,322.2,557.46,319.522Z" transform="translate(625.751 825.616)" fill="url(#linear-gradient-33)"/>
        <path id="Контур_161" data-name="Контур 161" d="M210.695,238.947,471.987,359.558l24.474.351L210.695,228a17.61,17.61,0,0,1-2.848-1.636C202.4,230.263,203.335,235.55,210.695,238.947Z" transform="translate(887.701 983.287)" fill="url(#linear-gradient-34)"/>
      </g>
      <g id="Сгруппировать_66" data-name="Сгруппировать 66" clip-path="url(#clip-path-2)">
        <path id="Контур_162" data-name="Контур 162" d="M0,401.1V266.019s580.96-85.932,1001.959,16.3c403.315,97.944,1001.958,44.59,1001.958,44.59V401.1Z" transform="translate(0.002 1008.78)" fill="#264f8c"/>
      </g>
      <g id="Сгруппировать_67" data-name="Сгруппировать 67" opacity="0.47" clip-path="url(#clip-path-2)">
        <path id="Контур_163" data-name="Контур 163" d="M625.976,354.439l-23.84-60.2-42.027,11.005,39.763-14.522-22.118-43.686-23.872.379,21.559-3.988-2.8-4.382-72.38,9.978,67.378-16.1-24.57-47.164c-4.382-6.876-29.874,16.632-49.452,14.986l-65.969-5.541c-19.59-1.645-47.248-1.155-61.449,1.09l-47.8,7.559c-14.186,2.246-13.982,9.565.444,16.267l37.816,16.24L408.6,239.7l-43.14,1.067,14.748,6.849-49.926-4.106a447.627,447.627,0,0,0-59.878-.343,48.411,48.411,0,0,1-1.566,22.552,279.213,279.213,0,0,1-12.609,32.046l51.414,3.212-53.974,1.472c-.089.144-.163.3-.253.44l103.439,47.564,69.795,6.067-57.064,1.15,75.016,34.6,35.514,2.212-27.265,1.595,16.837,7.774,21.79,1.166-17.347.883L567.1,448.854c18.6,8.6,28.919,8.388,22.948-.474l-42.614-63.462-43.51.189L544.4,380.39l-38.991-58.452-30.5.558,27.414-5.207-3.755-5.645-73.369,1.1,66.745-8.99-2.719-4.366,24.266,11.306,27.748,1.78-21.383,1.187,12.984,6.052,17.032.944-13.606.652,71.718,33.458C622.339,361.463,630.43,361.316,625.976,354.439ZM479.249,283.332l-1.473-2.372,22.558,2Z" transform="translate(1100.766 801.418)" fill="#36649f"/>
        <path id="Контур_164" data-name="Контур 164" d="M448.693,328.715l-34.134-40.539-24.706-.437,22.275-2.456-31.338-37.34-17.231-.035,14.744-2.935-3.023-3.607L333.8,241.13l36.475-4.821L353.2,214.976c-4.729-5.659-20.513-11.614-35.083-13.231l-49.085-5.454c-14.577-1.621-34.522-1.617-44.317.006l-5.439.9c-1.117,8.782-4.8,12.964-9.227,20.451l16.727,11.112,38.434,3.466-31.062.247,66.717,31.556,40.6,4.712H309.225L357.239,291.5l20.538,1.849L362.522,294l10.781,5.112,12.575,1.015-9.731.335,59.56,28.257C447.626,334.377,453.469,334.375,448.693,328.715Z" transform="translate(912.416 847.37)" fill="#36649f"/>
      </g>
      <g id="Сгруппировать_68" data-name="Сгруппировать 68" clip-path="url(#clip-path-2)">
        <path id="Контур_165" data-name="Контур 165" d="M14.878,87.084l89.032,65.191L20.346,450.26,50.013,240.368l-15.751-12.41,25.132-55.451L40.362,157.771Z" transform="translate(64.627 378.272)" opacity="0.24"/>
      </g>
      <g id="Сгруппировать_69" data-name="Сгруппировать 69" clip-path="url(#clip-path-2)">
        <path id="Контур_166" data-name="Контур 166" d="M83.45,102.926l74.372,77.4-37.186,126.59V241.571l12.388-38.715-24.206-34.095Z" transform="translate(362.49 447.086)" opacity="0.24"/>
      </g>
      <g id="Сгруппировать_70" data-name="Сгруппировать 70" clip-path="url(#clip-path-2)">
        <ellipse id="Эллипс_2" data-name="Эллипс 2" cx="9.049" cy="9.096" rx="9.049" ry="9.096" transform="translate(729.636 279.975)" fill="#fff" opacity="0.82"/>
      </g>
      <g id="Сгруппировать_71" data-name="Сгруппировать 71" clip-path="url(#clip-path-2)">
        <path id="Контур_167" data-name="Контур 167" d="M221.7,97.571,117.661,45.92,233.517,82.741Z" transform="translate(511.092 199.466)" opacity="0.16" fill="url(#linear-gradient-35)"/>
      </g>
      <g id="Сгруппировать_72" data-name="Сгруппировать 72" clip-path="url(#clip-path-2)">
        <ellipse id="Эллипс_3" data-name="Эллипс 3" cx="12.059" cy="12.121" rx="12.059" ry="12.121" transform="translate(820.554 268.861)" fill="#fff" opacity="0.82"/>
      </g>
      <g id="Сгруппировать_73" data-name="Сгруппировать 73" clip-path="url(#clip-path-2)">
        <path id="Контур_168" data-name="Контур 168" d="M359.246,145.273,107.1,32.817l263.968,97.625Z" transform="translate(465.207 142.55)" opacity="0.16" fill="url(#linear-gradient-35)"/>
      </g>
      <g id="Сгруппировать_74" data-name="Сгруппировать 74" clip-path="url(#clip-path-2)">
        <path id="Контур_169" data-name="Контур 169" d="M352.593,144.833c3.654-12.412,9.635-12.412,13.289,0l26.175,88.9L367.5,234.7l26.427,5.372,24.112,81.891-17.5.085,19.416,6.429,2.329,7.91-41.88.537,44.358,10.553,14.563,46.79A23.353,23.353,0,0,1,423.456,423.3l-41.7,11.977c-12.383,3.556-32.646,3.556-45.028,0l-41.7-11.977a23.353,23.353,0,0,1-15.87-29.032l10.909-30.176,33.9-7.611-31.98-.529,20.45-69.218,34.3-10.351-32.878.018,14.7-49.915,18.182-4.064-16.565-1.43,3.3-11.214,11.312-2.23-10.442-.727Z" transform="translate(1208.409 588.686)" fill="#346099"/>
      </g>
      <g id="Сгруппировать_75" data-name="Сгруппировать 75" opacity="0.13" clip-path="url(#clip-path-2)">
        <path id="Контур_170" data-name="Контур 170" d="M328.98,163l-5.349-18.168c-3.654-12.411-9.634-12.411-13.288,0L292.09,206.82l10.442.727-11.312,2.23-3.3,11.214,16.059,1.387,15.271-51.863C321.868,161.612,325.682,159.131,328.98,163Z" transform="translate(1250.652 588.686)" fill="#fff"/>
        <path id="Контур_171" data-name="Контур 171" d="M314.257,161.765l2.932-9.956-17.627,3.94-14.7,49.915,16.47-.009,7.133-24.224" transform="translate(1237.389 659.423)" fill="#fff"/>
        <line id="Линия_1" data-name="Линия 1" y1="11.215" x2="3.301" transform="translate(1547.474 824.146)" fill="#fff"/>
        <path id="Контур_172" data-name="Контур 172" d="M310.127,193.5l7.393-30.6-16.3,4.917-20.451,69.219,16.412.271L310.127,193.5" transform="translate(1219.607 707.602)" fill="#fff"/>
        <path id="Контур_173" data-name="Контур 173" d="M300.875,198.968l6.321-21.392-17.146,3.85L279.141,211.6a23.329,23.329,0,0,0,8.938,25.591l10.875-30.085" transform="translate(1208.408 771.352)" fill="#fff"/>
        <path id="Контур_174" data-name="Контур 174" d="M290.963,151.777l-.05.168.555-.124Z" transform="translate(1263.664 659.287)" fill="#fff"/>
      </g>
      <g id="Сгруппировать_76" data-name="Сгруппировать 76" clip-path="url(#clip-path-2)">
        <path id="Контур_175" data-name="Контур 175" d="M278.177,158.078c3.431-11.654,9.046-11.654,12.478,0l24.579,83.476-23.062.913,24.816,5.044,22.641,76.9-16.431.081,18.232,6.036,2.187,7.427-39.325.5,41.652,9.91L359.619,392.3a21.928,21.928,0,0,1-14.9,27.261l-39.161,11.246c-11.628,3.339-30.655,3.339-42.282,0l-39.161-11.246a21.928,21.928,0,0,1-14.9-27.261l10.243-28.337,31.833-7.146-30.031-.5,19.2-65,32.211-9.72-30.874.017,13.8-46.87,17.073-3.817-15.553-1.342,3.1-10.531,10.621-2.095-9.8-.683Z" transform="translate(904.87 648.688)" fill="#346099"/>
      </g>
      <g id="Сгруппировать_77" data-name="Сгруппировать 77" opacity="0.31" clip-path="url(#clip-path-2)">
        <path id="Контур_176" data-name="Контур 176" d="M346.1,184.26l12.6-.021c17.08,17.162,12.9,32.95-9.331,35.264-1.392.144-2.836.215-4.316.231-.211.075-.347.2-.565.268-1.23-.059-2.549-.277-3.824-.411-9.8-.693-21.171-3.905-32.6-8.95a21.034,21.034,0,0,1-5.639,1.194,48.5,48.5,0,0,1-14.408-1.5c-15.275-3.53-34.076-13.591-47.031-25.9h.085c-.286-.264-.622-.511-.9-.776" transform="translate(1043.267 797.782)" fill="#36649f"/>
      </g>
      <g id="Сгруппировать_78" data-name="Сгруппировать 78" clip-path="url(#clip-path-2)">
        <path id="Контур_177" data-name="Контур 177" d="M267.6,195.246a31.873,31.873,0,0,1,12.987-2.772,30.338,30.338,0,0,1,6.96.907,44.965,44.965,0,0,1,23.712-13.672c1.159-.312,2.275-.73,3.466-.952.295.057.562.186.855.249a43.327,43.327,0,0,1,4.636-.26,43.812,43.812,0,0,1,16.309,3.181,43.931,43.931,0,0,0-23.694-6.974,43.334,43.334,0,0,0-4.636.26c-.292-.065-.56-.193-.854-.25-1.191.221-2.307.641-3.466.953a44.966,44.966,0,0,0-23.713,13.67,30.381,30.381,0,0,0-6.96-.907,31.864,31.864,0,0,0-12.987,2.773,32.867,32.867,0,0,0-19.97,30.5h.084c-.007.3-.084.574-.084.872l7.688,1.344C249.032,211.64,256.765,199.745,267.6,195.246Z" transform="translate(1043.569 759.955)" fill="#3b6eb0"/>
        <path id="Контур_178" data-name="Контур 178" d="M355.077,218.868A47.3,47.3,0,0,0,333.4,178.843a43.8,43.8,0,0,0-16.309-3.181,43.325,43.325,0,0,0-4.636.26c-.293-.063-.56-.192-.855-.249-1.191.221-2.307.64-3.467.952A44.967,44.967,0,0,0,284.427,190.3a30.343,30.343,0,0,0-6.96-.907,31.875,31.875,0,0,0-12.987,2.772c-10.834,4.5-22.416,15.723-23.516,28.251a350.947,350.947,0,0,0,58.942,5.255C331.476,225.667,355.077,218.868,355.077,218.868Z" transform="translate(1046.688 763.039)" fill="#346099"/>
      </g>
      <g id="Сгруппировать_79" data-name="Сгруппировать 79" opacity="0.31" clip-path="url(#clip-path-2)">
        <path id="Контур_179" data-name="Контур 179" d="M199.988,189.762l-11.585-.02c-15.706,15.782-11.865,30.3,8.58,32.428,1.279.133,2.608.2,3.969.213.194.07.32.182.52.247,1.131-.054,2.343-.254,3.516-.377,9.012-.639,19.468-3.591,29.979-8.231a19.347,19.347,0,0,0,5.184,1.1,44.647,44.647,0,0,0,13.249-1.382c14.046-3.245,31.336-12.5,43.249-23.813h-.078c.262-.243.572-.47.83-.714" transform="translate(776.398 821.897)" fill="#36649f"/>
      </g>
      <g id="Сгруппировать_80" data-name="Сгруппировать 80" clip-path="url(#clip-path-2)">
        <path id="Контур_180" data-name="Контур 180" d="M247.694,199.866a29.3,29.3,0,0,0-11.942-2.55,27.9,27.9,0,0,0-6.4.835,41.347,41.347,0,0,0-21.805-12.572c-1.066-.287-2.092-.672-3.187-.875-.271.052-.516.17-.785.228a39.718,39.718,0,0,0-4.264-.239,40.281,40.281,0,0,0-15,2.925A40.41,40.41,0,0,1,206.1,181.2a39.878,39.878,0,0,1,4.264.239c.269-.059.515-.177.785-.229,1.1.2,2.122.588,3.187.876a41.35,41.35,0,0,1,21.806,12.571,27.968,27.968,0,0,1,6.4-.835,29.3,29.3,0,0,1,11.942,2.551,30.223,30.223,0,0,1,18.364,28.046h-.077c.006.275.077.528.077.8l-7.07,1.236C264.767,214.942,257.656,204,247.694,199.866Z" transform="translate(800.607 787.111)" fill="#3b6eb0"/>
        <path id="Контур_181" data-name="Контур 181" d="M180.582,221.588a43.5,43.5,0,0,1,19.929-36.806,40.282,40.282,0,0,1,15-2.925,39.71,39.71,0,0,1,4.264.239c.269-.058.515-.177.785-.229,1.1.2,2.122.589,3.187.875a41.346,41.346,0,0,1,21.805,12.572,27.932,27.932,0,0,1,6.4-.835,29.3,29.3,0,0,1,11.942,2.55c9.963,4.137,20.613,14.458,21.625,25.979a322.718,322.718,0,0,1-54.2,4.832A202.372,202.372,0,0,1,180.582,221.588Z" transform="translate(784.408 789.947)" fill="#346099"/>
      </g>
      <g id="Сгруппировать_81" data-name="Сгруппировать 81" opacity="0.31" clip-path="url(#clip-path-2)">
        <path id="Контур_182" data-name="Контур 182" d="M80.015,214.042l-9.788-.016c-13.271,13.334-10.025,25.6,7.249,27.4,1.081.113,2.2.167,3.353.18.163.058.271.153.439.207.956-.045,1.98-.215,2.971-.318,7.615-.54,16.45-3.034,25.329-6.955a16.29,16.29,0,0,0,4.38.927,37.722,37.722,0,0,0,11.195-1.166c11.868-2.742,26.476-10.56,36.542-20.12h-.066c.221-.205.484-.4.7-.6" transform="translate(269.577 927.736)" fill="#36649f"/>
      </g>
      <g id="Сгруппировать_82" data-name="Сгруппировать 82" clip-path="url(#clip-path-2)">
        <path id="Контур_183" data-name="Контур 183" d="M120.322,222.578a24.763,24.763,0,0,0-10.091-2.154,23.6,23.6,0,0,0-5.408.7A34.934,34.934,0,0,0,86.4,210.508c-.9-.243-1.767-.568-2.693-.74-.229.044-.437.143-.664.193a33.476,33.476,0,0,0-3.6-.2,34.011,34.011,0,0,0-12.672,2.472,34.133,34.133,0,0,1,18.409-5.419,33.68,33.68,0,0,1,3.6.2c.227-.049.435-.149.664-.193.925.172,1.793.5,2.693.74a34.934,34.934,0,0,1,18.424,10.621,23.642,23.642,0,0,1,5.408-.7,24.76,24.76,0,0,1,10.091,2.154,25.537,25.537,0,0,1,15.517,23.7h-.066c.006.232.066.447.066.679L135.6,245.05C134.748,235.317,128.741,226.074,120.322,222.578Z" transform="translate(290.031 898.345)" fill="#3b6eb0"/>
        <path id="Контур_184" data-name="Контур 184" d="M63.618,240.933a36.75,36.75,0,0,1,16.839-31.1,34.022,34.022,0,0,1,12.672-2.472,33.492,33.492,0,0,1,3.6.2c.227-.05.435-.15.664-.193.925.172,1.792.5,2.693.74a34.939,34.939,0,0,1,18.424,10.621,23.593,23.593,0,0,1,5.408-.7,24.76,24.76,0,0,1,10.091,2.154c8.418,3.5,17.417,12.217,18.272,21.95a272.682,272.682,0,0,1-45.8,4.082A170.987,170.987,0,0,1,63.618,240.933Z" transform="translate(276.344 900.74)" fill="#346099"/>
      </g>
      <g id="Сгруппировать_83" data-name="Сгруппировать 83" opacity="0.13" clip-path="url(#clip-path-2)">
        <path id="Контур_185" data-name="Контур 185" d="M256,175.138l-5.024-17.06c-3.432-11.654-9.047-11.654-12.479,0l-17.139,58.206,9.8.683-10.621,2.095-3.1,10.531,15.079,1.3,14.34-48.7C249.326,173.835,252.907,171.505,256,175.138Z" transform="translate(944.536 648.688)" fill="#fff"/>
        <path id="Контур_186" data-name="Контур 186" d="M242.179,173.979l2.753-9.35-16.552,3.7-13.8,46.871,15.465-.008,6.7-22.746" transform="translate(932.084 715.111)" fill="#fff"/>
        <line id="Линия_2" data-name="Линия 2" y1="10.53" x2="3.101" transform="translate(1170.344 891.867)" fill="#fff"/>
        <path id="Контур_187" data-name="Контур 187" d="M238.3,203.778l6.941-28.735-15.3,4.618-19.2,65,15.411.255L238.3,203.778" transform="translate(915.386 760.351)" fill="#fff"/>
        <path id="Контур_188" data-name="Контур 188" d="M229.612,208.911l5.935-20.086-16.1,3.614L209.2,220.776a21.907,21.907,0,0,0,8.393,24.03l10.212-28.25" transform="translate(904.87 820.214)" fill="#fff"/>
        <path id="Контур_189" data-name="Контур 189" d="M220.3,164.6l-.045.157.52-.116Z" transform="translate(956.757 714.983)" fill="#fff"/>
      </g>
      <g id="Сгруппировать_84" data-name="Сгруппировать 84" opacity="0.47" clip-path="url(#clip-path-2)">
        <path id="Контур_190" data-name="Контур 190" d="M21.893,252.65l18.854-22.393,13.646-.241-12.3-1.356L59.4,208.034l9.518-.02-8.144-1.621,1.67-1.992,22.911-.131-20.147-2.662,9.431-11.784c2.611-3.125,11.331-6.415,19.378-7.309l27.113-3.012c8.052-.894,19.068-.894,24.479,0l3,.5c.617,4.851,2.649,7.161,5.1,11.3l-9.239,6.138-21.23,1.915,17.157.136-36.851,17.43-22.428,2.6H98.93L72.409,232.09l-11.346,1.021,8.427.363L63.536,236.3l-6.946.56,5.375.185-32.9,15.607C22.483,255.778,19.255,255.776,21.893,252.65Z" transform="translate(91.099 776.809)" fill="#36649f"/>
      </g>
      <g id="Сгруппировать_85" data-name="Сгруппировать 85" clip-path="url(#clip-path-2)">
        <path id="Контур_191" data-name="Контур 191" d="M76.52,158.4c-1.9-6.437-5-6.437-6.893,0L56.051,204.5l12.738.5L55.082,207.8,42.576,250.269l9.076.044-10.071,3.334-1.208,4.1,21.722.278L39.088,263.5l-7.553,24.268a12.112,12.112,0,0,0,8.231,15.057L61.4,309.04c6.422,1.844,16.932,1.844,23.354,0l21.63-6.212a12.112,12.112,0,0,0,8.232-15.057l-5.657-15.652-17.584-3.947,16.588-.275L97.353,232l-17.792-5.369,17.053.01-7.623-25.889-9.43-2.107,8.591-.742-1.713-5.816-5.867-1.157,5.416-.377Z" transform="translate(134.826 667.067)" fill="#346099"/>
      </g>
      <g id="Сгруппировать_86" data-name="Сгруппировать 86" opacity="0.13" clip-path="url(#clip-path-2)">
        <path id="Контур_192" data-name="Контур 192" d="M37.741,167.819l2.775-9.423c1.9-6.437,5-6.437,6.893,0l9.466,32.151-5.415.377,5.868,1.157L59.04,197.9l-8.329.719-7.921-26.9C41.431,167.1,39.452,165.812,37.741,167.819Z" transform="translate(163.941 667.068)" fill="#fff"/>
        <path id="Контур_193" data-name="Контур 193" d="M41.693,167.178l-1.52-5.164,9.142,2.044,7.623,25.889-8.542,0-3.7-12.564" transform="translate(174.504 703.756)" fill="#fff"/>
        <line id="Линия_3" data-name="Линия 3" x1="1.714" y1="5.817" transform="translate(216.649 872.469)" fill="#fff"/>
        <path id="Контур_194" data-name="Контур 194" d="M45.7,183.639l-3.834-15.871,8.452,2.551,10.607,35.9-8.513.141L45.7,183.639" transform="translate(181.861 728.745)" fill="#fff"/>
        <path id="Контур_195" data-name="Контур 195" d="M47.234,186.474,43.956,175.38l8.892,2,5.658,15.652A12.1,12.1,0,0,1,53.871,206.3l-5.64-15.6" transform="translate(190.936 761.81)" fill="#fff"/>
        <path id="Контур_196" data-name="Контур 196" d="M40.382,162l.026.087-.288-.064Z" transform="translate(174.27 703.685)" fill="#fff"/>
      </g>
      <g id="Сгруппировать_87" data-name="Сгруппировать 87" opacity="0.47" clip-path="url(#clip-path-2)">
        <path id="Контур_197" data-name="Контур 197" d="M66.106,223.4,80.412,206.41l10.355-.183L81.432,205.2l13.134-15.65,7.222-.015-6.18-1.23,1.267-1.511,17.386-.1-15.287-2.02,7.156-8.942c1.982-2.371,8.6-4.868,14.7-5.546l20.572-2.286c6.109-.679,14.47-.677,18.575,0l2.28.378c.468,3.681,2.01,5.434,3.867,8.57l-7.01,4.658-16.109,1.452,13.019.1-27.962,13.227-17.018,1.975h13.516L104.438,207.8l-8.609.775,6.394.275L97.7,210.994l-5.271.425,4.079.141L71.55,223.4C66.554,225.774,64.105,225.773,66.106,223.4Z" transform="translate(284.118 727.106)" fill="#36649f"/>
      </g>
      <g id="Сгруппировать_88" data-name="Сгруппировать 88" clip-path="url(#clip-path-2)">
        <path id="Контур_198" data-name="Контур 198" d="M107.558,151.884c-1.438-4.885-3.791-4.885-5.23,0l-10.3,34.987,9.666.382-10.4,2.114L81.8,221.6l6.887.034-7.642,2.53-.917,3.113,16.482.211-17.458,4.154-5.731,18.414a9.191,9.191,0,0,0,6.246,11.426l16.413,4.713a37.911,37.911,0,0,0,17.721,0l16.413-4.713a9.191,9.191,0,0,0,6.246-11.426l-4.293-11.877-13.343-3,12.587-.209-8.049-27.24-13.5-4.074,12.94.008-5.785-19.644-7.156-1.6,6.519-.563-1.3-4.413-4.451-.878,4.109-.287Z" transform="translate(317.297 643.835)" fill="#346099"/>
      </g>
      <g id="Сгруппировать_89" data-name="Сгруппировать 89" opacity="0.13" clip-path="url(#clip-path-2)">
        <path id="Контур_199" data-name="Контур 199" d="M78.133,159.034l2.105-7.15c1.438-4.885,3.791-4.885,5.23,0l7.182,24.4-4.109.287,4.452.878,1.3,4.413-6.32.546-6.01-20.41C80.931,158.487,79.43,157.511,78.133,159.034Z" transform="translate(339.39 643.835)" fill="#fff"/>
        <path id="Контур_200" data-name="Контур 200" d="M81.131,158.548l-1.153-3.919,6.937,1.55L92.7,175.824l-6.482,0-2.807-9.533" transform="translate(347.405 671.675)" fill="#fff"/>
        <line id="Линия_4" data-name="Линия 4" x1="1.299" y1="4.414" transform="translate(428.879 831.386)" fill="#fff"/>
        <path id="Контур_201" data-name="Контур 201" d="M84.172,171.037l-2.91-12.043,6.414,1.936,8.049,27.241-6.46.108-5.094-17.241" transform="translate(352.987 690.635)" fill="#fff"/>
        <path id="Контур_202" data-name="Контур 202" d="M85.335,173.189l-2.487-8.419,6.747,1.515,4.293,11.877a9.181,9.181,0,0,1-3.517,10.071l-4.281-11.84" transform="translate(359.874 715.725)" fill="#fff"/>
        <path id="Контур_203" data-name="Контур 203" d="M80.136,154.617l.02.066-.219-.049Z" transform="translate(347.227 671.621)" fill="#fff"/>
      </g>
      <g id="Сгруппировать_90" data-name="Сгруппировать 90" clip-path="url(#clip-path-2)">
        <path id="Контур_204" data-name="Контур 204" d="M346.28,150.533c4.692-15.934,12.369-15.934,17.06,0l33.6,114.125-31.529,1.247,33.927,6.9L430.294,377.93l-22.462.11,24.925,8.252,2.99,10.153-53.763.69,56.945,13.548,18.7,60.068a29.979,29.979,0,0,1-20.373,37.27L383.712,523.4c-15.9,4.565-41.909,4.565-57.8,0l-53.54-15.375a29.981,29.981,0,0,1-20.372-37.27l14-38.74,43.521-9.77-41.056-.68,26.255-88.86,44.038-13.288-42.209.024,18.868-64.08,23.341-5.218L317.491,248.3l4.239-14.4,14.521-2.863-13.4-.933Z" transform="translate(1089.273 601.972)" fill="#2d5385"/>
      </g>
      <g id="Сгруппировать_91" data-name="Сгруппировать 91" opacity="0.13" clip-path="url(#clip-path-2)">
        <path id="Контур_205" data-name="Контур 205" d="M315.967,173.857,309.1,150.533c-4.692-15.934-12.369-15.934-17.06,0l-23.431,79.578,13.4.933-14.522,2.863-4.239,14.4,20.615,1.78,19.6-66.58C306.835,172.075,311.733,168.89,315.967,173.857Z" transform="translate(1143.505 601.972)" fill="#fff"/>
        <path id="Контур_206" data-name="Контур 206" d="M297.064,172.271l3.765-12.782L278.2,164.547l-18.868,64.079,21.143-.011,9.157-31.1" transform="translate(1126.479 692.782)" fill="#fff"/>
        <line id="Линия_5" data-name="Линия 5" y1="14.397" x2="4.238" transform="translate(1418.187 868.85)" fill="#fff"/>
        <path id="Контур_207" data-name="Контур 207" d="M291.762,213.011l9.49-39.283-20.921,6.313L254.076,268.9l21.069.349,16.617-56.238" transform="translate(1103.651 754.633)" fill="#fff"/>
        <path id="Контур_208" data-name="Контур 208" d="M279.885,220.03,288,192.568l-22.01,4.941-14,38.74A29.949,29.949,0,0,0,263.458,269.1l13.961-38.622" transform="translate(1089.274 836.473)" fill="#fff"/>
        <path id="Контур_209" data-name="Контур 209" d="M267.16,159.448l-.063.215.712-.159Z" transform="translate(1160.211 692.608)" fill="#fff"/>
      </g>
      <g id="Сгруппировать_92" data-name="Сгруппировать 92" clip-path="url(#clip-path-2)">
        <path id="Контур_210" data-name="Контур 210" d="M316.122,103.918,286.957,126.98l4.114,58.756,4.748,43.314,16.871-97.466Z" transform="translate(1246.478 451.397)" opacity="0.24"/>
      </g>
      <g id="Сгруппировать_93" data-name="Сгруппировать 93" clip-path="url(#clip-path-2)">
        <path id="Контур_211" data-name="Контур 211" d="M132.157,211.886,95.471,331.715l34.056.75,34.055.75Z" transform="translate(414.706 920.386)" fill="#264f8c"/>
        <path id="Контур_212" data-name="Контур 212" d="M154.53,212.148,117.845,331.976l34.055.75,34.055.75Z" transform="translate(511.894 921.524)" fill="#264f8c"/>
        <path id="Контур_213" data-name="Контур 213" d="M185.727,222.279l-28.353,92.613,26.321.58,26.321.58Z" transform="translate(683.596 965.53)" fill="#264f8c"/>
        <path id="Контур_214" data-name="Контур 214" d="M128.948,209.287,84.5,354.482l41.265.909,41.265.91Z" transform="translate(367.032 909.095)" fill="#264f8c"/>
        <path id="Контур_215" data-name="Контур 215" d="M347.215,228.872l-44.451,145.2,41.264.909,41.266.909Z" transform="translate(1315.142 994.17)" fill="#264f8c"/>
        <path id="Контур_216" data-name="Контур 216" d="M74.549,207.952,30.1,353.147l41.266.909,41.265.909Z" transform="translate(130.735 903.299)" fill="#264f8c"/>
        <path id="Контур_217" data-name="Контур 217" d="M68.729,218.5l-28.07,91.689,26.059.574,26.059.574Z" transform="translate(176.611 949.116)" fill="#264f8c"/>
        <path id="Контур_218" data-name="Контур 218" d="M46.033,221.6,17.962,313.286l26.059.574,26.059.574Z" transform="translate(78.024 962.568)" fill="#264f8c"/>
        <path id="Контур_219" data-name="Контур 219" d="M228.856,230.305,200.5,322.919l26.322.58,26.321.581Z" transform="translate(870.94 1000.395)" fill="#264f8c"/>
        <path id="Контур_220" data-name="Контур 220" d="M282.015,236.515l-28.354,92.613,26.322.58,26.321.58Z" transform="translate(1101.848 1027.37)" fill="#264f8c"/>
        <path id="Контур_221" data-name="Контур 221" d="M381.974,233.854l-28.353,92.614,26.321.579,26.321.58Z" transform="translate(1536.052 1015.809)" fill="#264f8c"/>
        <path id="Контур_222" data-name="Контур 222" d="M342.959,235.9l-28.354,92.614,26.322.579,26.321.581Z" transform="translate(1366.577 1024.693)" fill="#264f8c"/>
        <path id="Контур_223" data-name="Контур 223" d="M361.086,230.384,323.716,352.447l34.692.764,34.69.764Z" transform="translate(1406.15 1000.735)" fill="#264f8c"/>
        <path id="Контур_224" data-name="Контур 224" d="M242.846,227.8,206.911,345.175l33.359.735,33.358.735Z" transform="translate(898.778 989.512)" fill="#264f8c"/>
      </g>
      <g id="Сгруппировать_94" data-name="Сгруппировать 94" opacity="0.31" clip-path="url(#clip-path-2)">
        <path id="Контур_225" data-name="Контур 225" d="M509.648,203.959l21.824-.037c29.587,29.73,22.352,57.081-16.162,61.088-2.41.25-4.913.372-7.476.4-.366.13-.6.341-.98.464-2.131-.1-4.414-.478-6.625-.711-16.977-1.2-36.675-6.766-56.474-15.505a36.4,36.4,0,0,1-9.767,2.069c-7.352.526-15.859-.433-24.958-2.6-26.461-6.113-59.031-23.543-81.472-44.859h.148c-.5-.458-1.078-.885-1.562-1.343" transform="translate(1416.699 881.449)" fill="#36649f"/>
      </g>
      <g id="Сгруппировать_95" data-name="Сгруппировать 95" clip-path="url(#clip-path-2)">
        <path id="Контур_226" data-name="Контур 226" d="M373.654,222.992a55.2,55.2,0,0,1,22.5-4.8,52.668,52.668,0,0,1,12.058,1.571,77.89,77.89,0,0,1,41.078-23.683c2.007-.541,3.94-1.266,6-1.65.51.1.974.322,1.479.432a74.986,74.986,0,0,1,8.032-.451,75.858,75.858,0,0,1,28.253,5.512,76.1,76.1,0,0,0-41.046-12.083,75.048,75.048,0,0,0-8.032.451c-.506-.111-.969-.335-1.48-.432-2.064.384-4,1.109-6,1.651a77.892,77.892,0,0,0-41.078,23.682,52.608,52.608,0,0,0-12.057-1.571,55.182,55.182,0,0,0-22.5,4.805c-20.253,8.409-34.6,28.847-34.6,52.833h.148c-.013.515-.148.994-.148,1.51l13.318,2.329C341.49,251.392,354.885,230.785,373.654,222.992Z" transform="translate(1417.22 815.921)" fill="#3766a3"/>
        <path id="Контур_227" data-name="Контур 227" d="M525.19,263.913a81.934,81.934,0,0,0-37.543-69.334,75.854,75.854,0,0,0-28.253-5.512,74.827,74.827,0,0,0-8.032.451c-.506-.11-.97-.334-1.48-.432-2.064.384-4,1.109-6,1.65A77.893,77.893,0,0,0,402.8,214.419a52.64,52.64,0,0,0-12.058-1.571,55.2,55.2,0,0,0-22.5,4.8c-18.768,7.793-38.832,27.238-40.739,48.94a608.026,608.026,0,0,0,102.1,9.1C484.305,275.691,525.19,263.913,525.19,263.913Z" transform="translate(1422.626 821.263)" fill="#2d5385"/>
      </g>
    </g>
  </g>
</svg>
