<svg width="32" height="32" viewBox="0 0 32 32" fill="none" xmlns="http://www.w3.org/2000/svg">
<g clip-path="url(#clip0_2169_90)">
<path d="M28.3599 12.24C27.9835 11.6442 27.574 11.07 27.1333 10.52C27.0169 10.3718 26.8704 10.25 26.7035 10.1625C26.5366 10.0751 26.353 10.024 26.1649 10.0127C25.9768 10.0013 25.7884 10.03 25.6122 10.0968C25.436 10.1635 25.276 10.2669 25.1426 10.4L21.1426 14.4C21.4513 15.3543 21.4791 16.3771 21.2226 17.3467C20.9843 18.2789 20.4996 19.1297 19.8193 19.8101C19.139 20.4904 18.2881 20.9751 17.3559 21.2134C16.3864 21.4698 15.3635 21.4421 14.4093 21.1334L11.1333 24.412C10.9757 24.5675 10.8594 24.7596 10.7946 24.9713C10.7299 25.1829 10.7189 25.4073 10.7625 25.6242C10.8062 25.8412 10.9032 26.0439 11.0447 26.214C11.1862 26.3841 11.3679 26.5163 11.5733 26.5987C12.9853 27.1444 14.4861 27.4247 15.9999 27.4254C18.403 27.4077 20.7534 26.7197 22.7866 25.4387C25.083 23.9648 27.0122 21.9855 28.4266 19.652C29.0394 18.5106 29.3545 17.233 29.3429 15.9375C29.3312 14.642 28.9932 13.3703 28.3599 12.24Z" fill="#2900E0"/>
<path d="M18.6933 13.3066L13.3066 18.6933C12.596 17.9762 12.194 17.0095 12.1866 16C12.1888 14.9893 12.5912 14.0206 13.3059 13.3059C14.0206 12.5912 14.9893 12.1888 16 12.1866C17.0095 12.194 17.9762 12.596 18.6933 13.3066Z" fill="#2900E0"/>
<path d="M24.3333 7.6667L19.8133 12.1867C19.3146 11.6835 18.7204 11.2851 18.0655 11.015C17.4106 10.7448 16.7084 10.6082 16 10.6134C14.9347 10.6148 13.8938 10.9317 13.0084 11.524C12.123 12.1163 11.4329 12.9575 11.025 13.9416C10.6171 14.9256 10.5097 16.0084 10.7165 17.0534C10.9232 18.0984 11.4348 19.0588 12.1866 19.8134L7.67996 24.3334H7.66663C6.09932 23.0409 4.74892 21.5059 3.66663 19.7867C3.01116 18.6299 2.66663 17.323 2.66663 15.9934C2.66663 14.6638 3.01116 13.3568 3.66663 12.2C5.06923 9.92791 6.9649 8.00035 9.2133 6.56003C11.2492 5.28497 13.5979 4.59743 16 4.57336C19.0511 4.614 21.9947 5.70665 24.3333 7.6667Z" fill="#2900E0"/>
<path d="M19.8133 16C19.8112 17.0107 19.4088 17.9794 18.6941 18.6941C17.9794 19.4088 17.0107 19.8112 16 19.8133C15.9235 19.8175 15.8468 19.8085 15.7733 19.7866L19.7866 15.7733C19.8085 15.8468 19.8175 15.9235 19.8133 16Z" fill="#2900E0"/>
<path d="M29.0264 2.9731C28.8333 2.78111 28.5721 2.67334 28.2998 2.67334C28.0275 2.67334 27.7662 2.78111 27.5731 2.9731L2.9731 27.5864C2.78111 27.7795 2.67334 28.0408 2.67334 28.3131C2.67334 28.5854 2.78111 28.8467 2.9731 29.0398C3.16699 29.2257 3.4245 29.3306 3.6931 29.3331C3.82747 29.3324 3.96036 29.3049 4.08398 29.2523C4.20761 29.1996 4.3195 29.1228 4.4131 29.0264L29.0264 4.40643C29.1234 4.31392 29.2005 4.20271 29.2532 4.07953C29.306 3.95635 29.3331 3.82375 29.3331 3.68976C29.3331 3.55577 29.306 3.42318 29.2532 3.3C29.2005 3.17681 29.1234 3.0656 29.0264 2.9731Z" fill="#2900E0"/>
</g>
<defs>
<clipPath id="clip0_2169_90">
<rect width="32" height="32" fill="white"/>
</clipPath>
</defs>
</svg>
